<?xml version="1.0" encoding="UTF-8" standalone="no"?>
<svg
   width="373.35123pt"
   height="560.01288pt"
   version="1.1"
   viewBox="0 0 373.35123 560.01288"
   id="svg362"
   sodipodi:docname="noun-floral-bouquet-4636265.svg"
   inkscape:version="1.2.2 (b0a8486, 2022-12-01)"
   xmlns:inkscape="http://www.inkscape.org/namespaces/inkscape"
   xmlns:sodipodi="http://sodipodi.sourceforge.net/DTD/sodipodi-0.dtd"
   xmlns="http://www.w3.org/2000/svg"
   xmlns:svg="http://www.w3.org/2000/svg"
   xmlns:rdf="http://www.w3.org/1999/02/22-rdf-syntax-ns#"
   xmlns:cc="http://creativecommons.org/ns#">
  <sodipodi:namedview
     id="namedview364"
     pagecolor="#ffffff"
     bordercolor="#000000"
     borderopacity="0.25"
     inkscape:showpageshadow="2"
     inkscape:pageopacity="0.0"
     inkscape:pagecheckerboard="0"
     inkscape:deskcolor="#d1d1d1"
     inkscape:document-units="pt"
     showgrid="false"
     inkscape:zoom="0.55534431"
     inkscape:cx="238.59072"
     inkscape:cy="368.24002"
     inkscape:window-width="992"
     inkscape:window-height="577"
     inkscape:window-x="0"
     inkscape:window-y="25"
     inkscape:window-maximized="0"
     inkscape:current-layer="svg362" />
  <defs
     id="defs276">
    <symbol
       id="w"
       overflow="visible">
      <path
         d="m 19.734,-1.1875 c -1.0117,0.53125 -2.0703,0.93359 -3.1719,1.2031 -1.1055,0.26953 -2.2578,0.40625 -3.4531,0.40625 -3.5859,0 -6.4219,-1 -8.5156,-3 -2.0859,-2 -3.125,-4.7109 -3.125,-8.1406 0,-3.4375 1.0391,-6.1562 3.125,-8.1562 2.0938,-2 4.9297,-3 8.5156,-3 1.1953,0 2.3477,0.13672 3.4531,0.40625 1.1016,0.27344 2.1602,0.66797 3.1719,1.1875 v 4.4531 c -1.0234,-0.69531 -2.0312,-1.207 -3.0312,-1.5312 -1,-0.33203 -2.0547,-0.5 -3.1562,-0.5 -1.9688,0 -3.5234,0.63672 -4.6562,1.9062 -1.1367,1.2617 -1.7031,3.0078 -1.7031,5.2344 0,2.2188 0.56641,3.9648 1.7031,5.2344 1.1328,1.2617 2.6875,1.8906 4.6562,1.8906 1.1016,0 2.1562,-0.16016 3.1562,-0.48438 1,-0.33203 2.0078,-0.84766 3.0312,-1.5469 z"
         id="path207" />
    </symbol>
    <symbol
       id="f"
       overflow="visible">
      <path
         d="m 14.453,-11.734 c -0.46094,-0.20703 -0.91406,-0.35938 -1.3594,-0.45312 -0.4375,-0.10156 -0.88672,-0.15625 -1.3438,-0.15625 -1.3242,0 -2.3438,0.42969 -3.0625,1.2812 -0.71094,0.84375 -1.0625,2.0586 -1.0625,3.6406 V 3.3e-4 H 2.4686 v -16.109 h 5.1562 v 2.6406 c 0.66406,-1.0508 1.4258,-1.8164 2.2812,-2.2969 0.85156,-0.48828 1.8828,-0.73438 3.0938,-0.73438 0.16406,0 0.34766,0.0078 0.54688,0.01563 0.20703,0.01172 0.50391,0.04297 0.89062,0.09375 z"
         id="path210" />
    </symbol>
    <symbol
       id="a"
       overflow="visible">
      <path
         d="m 18.562,-8.0938 v 1.4531 H 6.515 c 0.125,1.2109 0.5625,2.1211 1.3125,2.7344 0.75,0.60547 1.7969,0.90625 3.1406,0.90625 1.082,0 2.1914,-0.16016 3.3281,-0.48438 1.1328,-0.32031 2.3008,-0.8125 3.5,-1.4688 v 3.9688 c -1.2188,0.46875 -2.4375,0.82031 -3.6562,1.0469 -1.2188,0.23828 -2.4375,0.35938 -3.6562,0.35938 -2.918,0 -5.1836,-0.73828 -6.7969,-2.2188 -1.6172,-1.4883 -2.4219,-3.5703 -2.4219,-6.25 0,-2.625 0.78906,-4.6875 2.375,-6.1875 1.5938,-1.5078 3.7812,-2.2656 6.5625,-2.2656 2.5312,0 4.5547,0.76562 6.0781,2.2969 1.5195,1.5234 2.2812,3.5586 2.2812,6.1094 z m -5.2969,-1.7188 c 0,-0.97656 -0.28906,-1.7656 -0.85938,-2.3594 -0.57422,-0.60156 -1.3203,-0.90625 -2.2344,-0.90625 -1,0 -1.8125,0.28125 -2.4375,0.84375 -0.61719,0.5625 -1,1.3711 -1.1562,2.4219 z"
         id="path213" />
    </symbol>
    <symbol
       id="e"
       overflow="visible">
      <path
         d="m 9.7031,-7.25 c -1.0742,0 -1.8867,0.18359 -2.4375,0.54688 -0.54297,0.36719 -0.8125,0.90234 -0.8125,1.6094 0,0.65625 0.21875,1.1719 0.65625,1.5469 0.4375,0.36719 1.0469,0.54688 1.8281,0.54688 0.96875,0 1.7812,-0.34766 2.4375,-1.0469 0.66406,-0.69531 1,-1.5664 1,-2.6094 v -0.59375 z m 7.8594,-1.9375 V 0 H 12.375 v -2.3906 c -0.6875,0.98047 -1.4648,1.6953 -2.3281,2.1406 -0.86719,0.44531 -1.918,0.67188 -3.1562,0.67188 -1.668,0 -3.0234,-0.48438 -4.0625,-1.4531 -1.043,-0.97656 -1.5625,-2.2422 -1.5625,-3.7969 0,-1.8945 0.64844,-3.2812 1.9531,-4.1562 1.3008,-0.88281 3.3438,-1.3281 6.125,-1.3281 h 3.0312 v -0.40625 c 0,-0.8125 -0.32422,-1.4062 -0.96875,-1.7812 -0.63672,-0.38281 -1.6367,-0.57812 -3,-0.57812 -1.1055,0 -2.1328,0.10938 -3.0781,0.32812 -0.94922,0.21875 -1.8359,0.55469 -2.6562,1 v -3.9375 c 1.1016,-0.26953 2.2109,-0.47266 3.3281,-0.60938 1.1133,-0.13281 2.2266,-0.20312 3.3438,-0.20312 2.9062,0 5,0.57422 6.2812,1.7188 1.2891,1.1484 1.9375,3.0117 1.9375,5.5938 z"
         id="path216" />
    </symbol>
    <symbol
       id="d"
       overflow="visible">
      <path
         d="m 8.0938,-20.688 v 4.5781 h 5.3125 v 3.6719 H 8.0938 v 6.8438 c 0,0.75 0.14844,1.2578 0.45312,1.5156 0.30078,0.26172 0.89062,0.39062 1.7656,0.39062 h 2.6562 v 3.6875 h -4.4219 c -2.0312,0 -3.4766,-0.42188 -4.3281,-1.2656 -0.84375,-0.85156 -1.2656,-2.2969 -1.2656,-4.3281 v -6.8438 h -2.5625 v -3.6719 h 2.5625 v -4.5781 z"
         id="path219" />
    </symbol>
    <symbol
       id="c"
       overflow="visible">
      <path
         d="m 13.438,-13.75 v -8.6406 h 5.1875 V 4e-4 H 13.438 v -2.3281 c -0.71094,0.94922 -1.4922,1.6484 -2.3438,2.0938 -0.85547,0.4375 -1.8438,0.65625 -2.9688,0.65625 -1.9805,0 -3.6094,-0.78516 -4.8906,-2.3594 -1.2734,-1.582 -1.9062,-3.6172 -1.9062,-6.1094 0,-2.4766 0.63281,-4.5039 1.9062,-6.0781 1.2812,-1.582 2.9102,-2.375 4.8906,-2.375 1.1133,0 2.0977,0.22656 2.9531,0.67188 0.86328,0.4375 1.6484,1.1328 2.3594,2.0781 z m -3.3906,10.422 c 1.1016,0 1.9414,-0.39844 2.5156,-1.2031 0.58203,-0.80078 0.875,-1.9727 0.875,-3.5156 0,-1.5312 -0.29297,-2.6953 -0.875,-3.5 -0.57422,-0.8125 -1.4141,-1.2188 -2.5156,-1.2188 -1.0938,0 -1.9336,0.40625 -2.5156,1.2188 -0.58594,0.80469 -0.875,1.9688 -0.875,3.5 0,1.543 0.28906,2.7148 0.875,3.5156 0.58203,0.80469 1.4219,1.2031 2.5156,1.2031 z"
         id="path222" />
    </symbol>
    <symbol
       id="j"
       overflow="visible">
      <path
         d="m 11.047,-3.3281 c 1.1016,0 1.9453,-0.39844 2.5312,-1.2031 0.58203,-0.80078 0.875,-1.9727 0.875,-3.5156 0,-1.5312 -0.29297,-2.6953 -0.875,-3.5 -0.58594,-0.8125 -1.4297,-1.2188 -2.5312,-1.2188 -1.1055,0 -1.9531,0.40625 -2.5469,1.2188 -0.58594,0.8125 -0.875,1.9805 -0.875,3.5 0,1.5312 0.28906,2.7031 0.875,3.5156 0.59375,0.80469 1.4414,1.2031 2.5469,1.2031 z m -3.4219,-10.422 c 0.70703,-0.94531 1.4922,-1.6406 2.3594,-2.0781 0.86328,-0.44531 1.8594,-0.67188 2.9844,-0.67188 1.9766,0 3.6016,0.79297 4.875,2.375 1.2812,1.5742 1.9219,3.6016 1.9219,6.0781 0,2.4922 -0.64062,4.5273 -1.9219,6.1094 -1.2734,1.5742 -2.8984,2.3594 -4.875,2.3594 -1.125,0 -2.1211,-0.22656 -2.9844,-0.67188 -0.86719,-0.44531 -1.6523,-1.1406 -2.3594,-2.0781 V -6e-5 H 2.4689 v -22.391 h 5.1562 z"
         id="path225" />
    </symbol>
    <symbol
       id="i"
       overflow="visible">
      <path
         d="m 0.35938,-16.109 h 5.1562 l 4.3281,10.922 3.6875,-10.922 h 5.1406 l -6.7656,17.641 c -0.6875,1.7891 -1.4844,3.0391 -2.3906,3.75 -0.90625,0.71875 -2.1055,1.0781 -3.5938,1.0781 h -2.9688 v -3.375 h 1.6094 c 0.875,0 1.5078,-0.14062 1.9062,-0.42188 0.39453,-0.28125 0.70312,-0.78125 0.92188,-1.5 l 0.15625,-0.4375 z"
         id="path228" />
    </symbol>
    <symbol
       id="h"
       overflow="visible">
      <path
         d="M 15.734,-3.9062 H 7.0778 L 5.7184,0 H 0.1403 l 7.9531,-21.484 h 6.6094 L 22.6559,0 h -5.5625 z m -7.2812,-4 h 5.8906 l -2.9375,-8.5469 z"
         id="path231" />
    </symbol>
    <symbol
       id="v"
       overflow="visible">
      <path
         d="M 2.4688,-16.109 H 7.625 V 0 H 2.4688 Z m 0,-6.2812 H 7.625 v 4.2031 H 2.4688 Z"
         id="path234" />
    </symbol>
    <symbol
       id="g"
       overflow="visible">
      <path
         d="M 18.672,-9.8125 V 0 h -5.1719 v -7.5156 c 0,-1.3828 -0.03125,-2.3438 -0.09375,-2.875 -0.0625,-0.5312 -0.17188,-0.91406 -0.32812,-1.1562 -0.19922,-0.34375 -0.47656,-0.60938 -0.82812,-0.79688 -0.34375,-0.1875 -0.73438,-0.28125 -1.1719,-0.28125 -1.0742,0 -1.918,0.41797 -2.5312,1.25 -0.61719,0.83594 -0.92188,1.9844 -0.92188,3.4531 V 7e-5 h -5.1562 v -16.109 h 5.1562 v 2.3594 c 0.78125,-0.94531 1.6016,-1.6406 2.4688,-2.0781 0.875,-0.44531 1.8438,-0.67188 2.9062,-0.67188 1.8516,0 3.2578,0.57422 4.2188,1.7188 0.96875,1.1367 1.4531,2.793 1.4531,4.9688 z"
         id="path237" />
    </symbol>
    <symbol
       id="u"
       overflow="visible">
      <path
         d="m 10.578,-11.953 c 1.1562,0 1.9844,-0.21094 2.4844,-0.64062 0.50781,-0.4375 0.76562,-1.1484 0.76562,-2.1406 0,-0.97656 -0.25781,-1.6758 -0.76562,-2.0938 -0.5,-0.42578 -1.3281,-0.64062 -2.4844,-0.64062 H 8.2499 v 5.5156 z M 8.2499,-8.1249 V 10e-5 H 2.703 v -21.484 h 8.4688 c 2.8203,0 4.8945,0.47656 6.2188,1.4219 1.3203,0.94922 1.9844,2.4531 1.9844,4.5156 0,1.418 -0.34375,2.5859 -1.0312,3.5 -0.6875,0.90625 -1.7266,1.5742 -3.1094,2 0.75781,0.17969 1.4375,0.57422 2.0312,1.1875 0.60156,0.60547 1.2109,1.5273 1.8281,2.7656 L 22.1093,5e-4 h -5.9062 l -2.625,-5.3438 C 13.05466,-6.4136 12.5234,-7.1441 11.9843,-7.5308 11.44133,-7.92533 10.7187,-8.12455 9.8124,-8.12455 Z"
         id="path240" />
    </symbol>
    <symbol
       id="t"
       overflow="visible">
      <path
         d="m 13.438,-2.7344 c -0.71094,0.9375 -1.4922,1.6328 -2.3438,2.0781 C 10.23873,-0.2188 9.2504,-5e-5 8.1254,-5e-5 c -1.9609,0 -3.5859,-0.76953 -4.875,-2.3125 -1.2812,-1.5508 -1.9219,-3.5312 -1.9219,-5.9375 0,-2.4063 0.64062,-4.375 1.9219,-5.9062 1.2891,-1.5391 2.9141,-2.3125 4.875,-2.3125 1.125,0 2.1133,0.21875 2.9688,0.65625 0.85156,0.4375 1.6328,1.1328 2.3438,2.0781 v -2.375 h 5.1875 v 14.484 c 0,2.5938 -0.82031,4.5703 -2.4531,5.9375 -1.6367,1.3633 -4.0117,2.0469 -7.125,2.0469 -1,0 -1.9766,-0.078125 -2.9219,-0.23438 C 5.188,5.97618 4.2427,5.74181 3.2974,5.4215 V 1.4059 c 0.89453,0.51953 1.7734,0.90625 2.6406,1.1562 0.86328,0.25781 1.7344,0.39062 2.6094,0.39062 1.6875,0 2.9219,-0.37109 3.7031,-1.1094 0.78906,-0.74219 1.1875,-1.8945 1.1875,-3.4688 z m -3.3906,-10.031 c -1.0625,0 -1.8984,0.39844 -2.5,1.1875 -0.59375,0.78125 -0.89062,1.8906 -0.89062,3.3281 0,1.4805 0.28516,2.6055 0.85938,3.375 0.58203,0.76172 1.4258,1.1406 2.5312,1.1406 1.0703,0 1.9062,-0.39062 2.5,-1.1719 0.59375,-0.78906 0.89062,-1.9062 0.89062,-3.3438 0,-1.4376 -0.29688,-2.5469 -0.89062,-3.3281 -0.59375,-0.78906 -1.4297,-1.1875 -2.5,-1.1875 z"
         id="path243" />
    </symbol>
    <symbol
       id="s"
       overflow="visible">
      <path
         d="M 2.4688,-22.391 H 7.625 V 0 H 2.4688 Z"
         id="path246" />
    </symbol>
    <symbol
       id="b"
       overflow="visible">
      <path
         d="m 10.141,-12.828 c -1.1367,0 -2.0078,0.41406 -2.6094,1.2344 -0.59375,0.82422 -0.89062,2.0078 -0.89062,3.5469 0,1.543 0.29688,2.7266 0.89062,3.5469 0.60156,0.82422 1.4727,1.2344 2.6094,1.2344 1.125,0 1.9844,-0.41016 2.5781,-1.2344 0.59375,-0.82031 0.89062,-2.0039 0.89062,-3.5469 0,-1.5391 -0.29688,-2.7227 -0.89062,-3.5469 -0.59375,-0.82031 -1.4531,-1.2344 -2.5781,-1.2344 z m 0,-3.6719 c 2.7695,0 4.9375,0.75 6.5,2.25 1.5625,1.4922 2.3438,3.5586 2.3438,6.2031 0,2.6484 -0.78125,4.7188 -2.3438,6.2188 -1.56255,1.5 -3.7305,2.25 -6.5,2.25 -2.7812,0 -4.9609,-0.75 -6.5312,-2.25 -1.5625,-1.5 -2.3438,-3.5703 -2.3438,-6.2188 0,-2.6445 0.78125,-4.7109 2.3438,-6.2031 1.5703,-1.5 3.75,-2.25 6.5312,-2.25 z"
         id="path249" />
    </symbol>
    <symbol
       id="r"
       overflow="visible">
      <path
         d="m 13.078,-22.391 v 3.375 h -2.8438 c -0.73047,0 -1.2422,0.13672 -1.5312,0.40625 -0.28125,0.26172 -0.42188,0.71875 -0.42188,1.375 v 1.125 h 4.3906 v 3.6719 h -4.3906 v 12.438 h -5.1562 v -12.438 h -2.5625 v -3.6719 h 2.5625 v -1.125 c 0,-1.7578 0.48828,-3.0547 1.4688,-3.8906 0.97656,-0.84375 2.4922,-1.2656 4.5469,-1.2656 z"
         id="path252" />
    </symbol>
    <symbol
       id="q"
       overflow="visible">
      <path
         d="m 17.406,-13.438 c 0.65625,-1 1.4297,-1.7578 2.3281,-2.2812 0.89453,-0.51953 1.8789,-0.78125 2.9531,-0.78125 1.8516,0 3.2656,0.57422 4.2344,1.7188 0.96875,1.1367 1.4531,2.793 1.4531,4.9688 v 9.8125 h -5.1875 v -8.4062 c 0.0078,-0.125 0.01563,-0.25391 0.01563,-0.39062 0.0078,-0.13281 0.01563,-0.32812 0.01563,-0.57812 0,-1.1328 -0.16797,-1.957 -0.5,-2.4688 -0.33594,-0.51953 -0.875,-0.78125 -1.625,-0.78125 -0.98047,0 -1.7344,0.40625 -2.2656,1.2188 -0.53125,0.80469 -0.80859,1.9688 -0.82812,3.5 v 7.9062 h -5.1719 v -8.4062 c 0,-1.7812 -0.15625,-2.9258 -0.46875,-3.4375 -0.30469,-0.51953 -0.85156,-0.78125 -1.6406,-0.78125 -0.99219,0 -1.7578,0.40625 -2.2969,1.2188 -0.53125,0.8125 -0.79688,1.9766 -0.79688,3.4844 v 7.9219 H 2.4528 v -16.109 h 5.1719 v 2.3594 c 0.63281,-0.91406 1.3594,-1.6016 2.1719,-2.0625 0.82031,-0.45703 1.7266,-0.6875 2.7188,-0.6875 1.1133,0 2.0977,0.27344 2.9531,0.8125 0.85156,0.53125 1.5,1.2812 1.9375,2.25 z"
         id="path255" />
    </symbol>
    <symbol
       id="p"
       overflow="visible">
      <path
         d="M 18.672,-9.8125 V 0 h -5.1719 v -7.4844 c 0,-1.4062 -0.03125,-2.375 -0.09375,-2.9062 -0.0625,-0.5312 -0.17188,-0.91406 -0.32812,-1.1562 -0.19922,-0.34375 -0.47656,-0.60938 -0.82812,-0.79688 -0.34375,-0.1875 -0.73438,-0.28125 -1.1719,-0.28125 -1.0742,0 -1.918,0.41797 -2.5312,1.25 -0.61719,0.83594 -0.92188,1.9844 -0.92188,3.4531 V 7e-5 h -5.1562 v -22.391 h 5.1562 v 8.6406 c 0.78125,-0.94531 1.6016,-1.6406 2.4688,-2.0781 0.875,-0.44531 1.8438,-0.67188 2.9062,-0.67188 1.8516,0 3.2578,0.57422 4.2188,1.7188 0.96875,1.1367 1.4531,2.793 1.4531,4.9688 z"
         id="path258" />
    </symbol>
    <symbol
       id="o"
       overflow="visible">
      <path
         d="m 2.7031,-21.484 h 6.1875 l 7.8125,14.734 v -14.734 h 5.25 V 0 H 15.7656 L 7.9531,-14.734 V 0 h -5.25 z"
         id="path261" />
    </symbol>
    <symbol
       id="n"
       overflow="visible">
      <path
         d="m 2.2969,-6.2812 v -9.8281 h 5.1875 v 1.6094 c 0,0.875 -0.00781,1.9766 -0.015625,3.2969 -0.011719,1.3125 -0.015625,2.1875 -0.015625,2.625 0,1.293 0.03125,2.2266 0.09375,2.7969 0.070313,0.57422 0.19141,0.99219 0.35938,1.25 0.20703,0.33594 0.47656,0.59375 0.8125,0.78125 0.34375,0.17969 0.73828,0.26562 1.1875,0.26562 1.0703,0 1.9141,-0.41016 2.5312,-1.2344 0.61328,-0.82031 0.92188,-1.9688 0.92188,-3.4375 v -7.9531 h 5.1406 v 16.109 h -5.1406 v -2.3281 c -0.78125,0.9375 -1.6094,1.6328 -2.4844,2.0781 -0.86719,0.44531 -1.8203,0.67188 -2.8594,0.67188 -1.8672,0 -3.2891,-0.56641 -4.2656,-1.7031 -0.96875,-1.1445 -1.4531,-2.8125 -1.4531,-5 z"
         id="path264" />
    </symbol>
    <symbol
       id="m"
       overflow="visible">
      <path
         d="m 2.7031,-21.484 h 9.2031 c 2.7266,0 4.8203,0.60938 6.2812,1.8281 1.4688,1.2109 2.2031,2.9375 2.2031,5.1875 0,2.25 -0.73438,3.9844 -2.2031,5.2031 -1.4609,1.2109 -3.5547,1.8125 -6.2812,1.8125 H 8.25 V 3e-4 H 2.7031 Z m 5.5469,4.0156 v 6 h 3.0625 c 1.0703,0 1.8984,-0.25781 2.4844,-0.78125 0.58203,-0.51953 0.875,-1.2578 0.875,-2.2188 0,-0.96875 -0.29297,-1.707 -0.875,-2.2188 -0.58594,-0.51953 -1.4141,-0.78125 -2.4844,-0.78125 z"
         id="path267" />
    </symbol>
    <symbol
       id="l"
       overflow="visible">
      <path
         d="M 2.4688,-16.109 H 7.625 v 15.828 c 0,2.1562 -0.52344,3.8008 -1.5625,4.9375 -1.0312,1.1328 -2.5312,1.7031 -4.5,1.7031 h -2.5469 v -3.375 h 0.89062 c 0.97656,0 1.6484,-0.22656 2.0156,-0.67188 0.36328,-0.4375 0.54688,-1.3047 0.54688,-2.5938 z m 0,-6.2812 H 7.625 v 4.2031 H 2.4688 Z"
         id="path270" />
    </symbol>
    <symbol
       id="k"
       overflow="visible">
      <path
         d="m 15.5,-15.609 v 4.2031 c -0.69922,-0.47656 -1.4023,-0.83203 -2.1094,-1.0625 -0.71094,-0.23828 -1.4453,-0.35938 -2.2031,-0.35938 -1.4375,0 -2.5586,0.42188 -3.3594,1.2656 -0.79297,0.84375 -1.1875,2.0156 -1.1875,3.5156 0,1.5117 0.39453,2.6875 1.1875,3.5312 0.80078,0.83594 1.9219,1.25 3.3594,1.25 0.8125,0 1.5781,-0.11719 2.2969,-0.35938 0.72656,-0.23828 1.3984,-0.59375 2.0156,-1.0625 v 4.2188 c -0.8125,0.29297 -1.6367,0.50781 -2.4688,0.65625 -0.82422,0.15625 -1.6523,0.23438 -2.4844,0.23438 -2.9062,0 -5.1836,-0.74219 -6.8281,-2.2344 -1.6367,-1.5 -2.4531,-3.5781 -2.4531,-6.2344 0,-2.6563 0.81641,-4.7266 2.4531,-6.2188 1.6445,-1.4883 3.9219,-2.2344 6.8281,-2.2344 0.84375,0 1.6758,0.07422 2.5,0.21875 0.82031,0.14844 1.6406,0.37109 2.4531,0.67188 z"
         id="path273" />
    </symbol>
  </defs>
  <g
     id="g360"
     transform="translate(-163.53596,0.01431582)"
     style="fill:#d3d3d3;fill-opacity:0.40449437">
    <path
       d="m 347.94,46.098 c 5.043,-12.512 5.2109,-26.457 0.47266,-39.082 -0.29297,-0.76562 -1.4141,-1.1797 -1.7695,-1.9453 -0.35547,-0.76562 -1.1797,-2.7109 -0.70703,-3.5352 V 1.53159 c 0.72266,-1.0586 1.9609,-1.6484 3.2422,-1.5312 0.82422,0 1.5312,1.9453 1.8281,3.0664 0.29297,1.1211 0.29297,3.5977 0.76562,5.3047 1.4727,5.4219 3.1836,10.789 4.4805,15.207 0.41406,-2.5938 1.0625,-6.4258 1.5898,-10.316 0,-0.53125 -0.53125,-1.0625 -0.53125,-1.6523 v 0.0039 c -0.24609,-0.74609 -0.24609,-1.5547 0,-2.3008 0.35547,-0.41406 1.4141,-0.29297 2.1797,-0.35547 l 0.004,0.00391 c 0.0586,0.80469 0.0586,1.6133 0,2.4141 0,0.53125 -0.58984,1.0625 -0.58984,1.5898 v 0.0039 c -0.28906,10.738 -2.2773,21.363 -5.8945,31.477 0.30078,-0.26953 0.5625,-0.58984 0.76563,-0.94141 0.29297,-0.47266 0.47266,-0.94141 0.70703,-1.4141 4.1406,-8.0742 6.8125,-16.812 7.8984,-25.82 -0.14062,-3.4609 -0.73438,-6.8906 -1.7695,-10.199 0,-1.0039 -1.0039,-2.418 -0.64844,-2.8867 0.76562,-0.78125 1.8906,-1.0977 2.9492,-0.82422 0.98828,0.63281 1.6562,1.6641 1.8281,2.8281 v 17.684 h 0.82422 c 0,-3.5977 0,-7.1914 0.35547,-10.727 0,-0.76562 0.94141,-1.5312 1.4727,-2.2383 0.47266,0.64844 1.4727,1.3555 1.4141,2.0039 -0.35547,3.8906 -0.88281,7.7227 -1.2383,11.789 1.4727,-4.4219 4.5391,-8.4883 2.2383,-13.676 -0.41406,-0.88281 0,-3.0664 0.64844,-3.2422 V 6.77869 c 1.4141,-0.49609 2.9531,-0.49609 4.3633,0 0.58984,0.29297 1.1211,2.8281 0.70703,3.1836 -2.8281,2.418 -2.3008,5.8945 -2.9492,8.8438 h 0.004 c -2.2891,8.8047 -6.7266,16.906 -12.91,23.578 -2.9219,3.2266 -6.0117,6.2969 -9.2539,9.1953 -0.69531,0.67188 -1.1133,1.5742 -1.1797,2.5352 0.62109,4.7656 -1.7109,9.4297 -5.8945,11.789 -0.6875,0.75 -0.99219,1.7695 -0.82422,2.7695 2.8867,13.5 6.543,26.938 8.6641,40.555 2.1211,13.617 3.418,28.59 4.2461,42.973 0.64844,11.789 0,24.168 0,36.254 h 1.1211 c 1.2383,-4.2461 2.418,-8.4883 3.7148,-12.734 l -0.004,0.004 c 8.5,-28.062 21.395,-54.605 38.195,-78.636994 0.73047,-0.72656 1.0781,-1.75 0.94531,-2.7695 -1.2031,-3.9023 -0.004,-8.1484 3.0664,-10.848 -4.5859,-7.3516 -6.9766,-15.859 -6.8984,-24.52 v -8.2539 c 0.0508,-0.68359 0.36719,-1.3203 0.88281,-1.7695 0.49219,-0.29688 1.1055,-0.29688 1.5938,0 0.52344,0.57812 0.78125,1.3477 0.70703,2.1211 -1.0078,5.3047 -0.78516,10.77 0.64844,15.977 0.82422,-6.4844 1.5898,-12.91 2.4766,-19.336 0.21484,-0.77734 0.78125,-1.4062 1.5312,-1.707 0.66016,-0.15625 1.3516,0.04687 1.8281,0.52734 0.44922,0.54297 0.58594,1.2812 0.35156,1.9453 -2.8867,3.3594 -2.0039,7.6641 -2.7109,11.789 v 0.0039 c -0.23438,2.4883 -0.23438,4.9961 0,7.4844 0.82422,-5.3047 1.6523,-10.492 2.4766,-15.68 v -1.1797 c 0.49219,-0.39453 1.0234,-0.73047 1.5898,-1 0.11719,0.62109 0.11719,1.2617 0,1.8828 -0.66406,1.5664 -1.1172,3.2109 -1.3555,4.8945 1.1211,-3.125 4.832,-5.1875 3.8906,-9.2539 0,-0.53125 1.0625,-1.7695 1.7695,-1.8281 0.96094,-0.01563 1.8906,0.34375 2.5938,1.0039 0.37891,0.67578 0.37891,1.5 0,2.1797 -3.9492,2.6523 -3.5977,7.4258 -5.3633,11.141 1.5312,-2.6523 3.0078,-5.3633 4.6562,-7.957 0.35547,-0.53125 1.4141,-0.64844 2.1211,-0.94141 v 2.1211 c -1.1562,1.8711 -2.1445,3.8438 -2.9453,5.8945 1.7695,-3.7148 6.3086,-5.6016 6.6016,-10.316 0,-0.58984 1.2969,-1.5312 2.0039,-1.5898 v -0.0039 c 0.84375,0.15234 1.5781,0.67188 2.0039,1.418 0,0.47266 -0.41406,1.4727 -0.88281,2.1211 -1.4727,1.8867 -3.0664,3.5977 -4.4219,5.543 v -0.0039 c -3.9062,5.2773 -6.6953,11.293 -8.1953,17.684 -0.14844,1.0195 -0.14844,2.0508 0,3.0664 2.5039,-8.4375 6.6289,-16.309 12.145,-23.164 0.33594,-0.67188 0.81641,-1.2578 1.4141,-1.7109 0,0 0.82422,0.64844 0.76563,0.76562 l -1.1797,1.7695 c -0.90625,0.98047 -1.7148,2.0469 -2.4141,3.1836 -3.0664,6.4844 -6.25,12.969 -9.3164,19.57 0,0.29297 0,0.76562 -0.58984,0.76562 4.4805,-7.0742 9.0195,-14.09 13.559,-21.16 1.1211,-1.8281 2.0625,-3.832 3.2422,-5.8945 0.35547,-0.53125 1.1211,-1.1797 1.6523,-1.1211 0.77734,0.11719 1.4648,0.57031 1.8867,1.2383 0.17188,0.76953 -0.0234,1.5742 -0.53125,2.1797 -1.3555,1.5898 -3.125,2.8281 -4.4219,4.4805 -6.0156,7.2617 -10.504,15.66 -13.203,24.699 l 17.273,-27.117 c 2.2383,2.0625 2.1797,2.4766 0,3.5977 h -0.004 c -0.45703,0.19531 -0.84766,0.52344 -1.1172,0.94141 -4.5391,7.4258 -9.0195,14.914 -13.145,22.695 2.1797,-2.7695 4.4805,-5.4805 6.4844,-8.3125 3.832,-5.6016 7.5469,-11.258 11.258,-16.918 0.53125,-0.88281 0.58984,-2.0039 1.0625,-2.8867 0.47266,-0.88281 1.0039,-1.8281 1.5312,-1.8281 0.89453,0.04297 1.7109,0.53125 2.1797,1.2969 0,0.76562 0,2.5352 -0.58984,2.6523 -2.5352,0.58984 -2.8281,2.8281 -3.8906,4.5391 -3.418,5.3047 -6.8398,10.668 -10.141,16.152 h 0.004 c 5.0859,-4.0391 9.25,-9.125 12.199,-14.914 0.35938,-0.69141 0.86328,-1.293 1.4766,-1.7695 0,0 1.2969,0.41406 1.2383,0.53125 -0.0352,0.75 -0.25781,1.4805 -0.64844,2.1211 -4.8672,8.1055 -11.277,15.172 -18.863,20.809 7.0938,-3.4219 13.188,-8.6211 17.684,-15.09 1.4141,-1.9453 2.2383,-4.3047 3.4766,-6.3672 0.39453,-0.67578 1.0586,-1.1484 1.8281,-1.2969 0.76953,0.09766 1.4609,0.53125 1.8867,1.1797 0.33594,0.60547 0.33594,1.3398 0,1.9453 -3.2422,4.0664 -6.6016,8.0742 -9.9023,12.086 l 0.58984,0.64844 10.316,-9.4297 c 0.29297,1.7109 1.2969,2.5352 -1.0039,3.5977 -2.3008,1.0625 -3.7734,3.7734 -5.8945,5.4219 -3.832,3.0664 -7.8398,5.8945 -11.789,9.0195 v -0.0039 c 0.82422,-0.23438 1.6328,-0.52734 2.4141,-0.88672 7.2227,-3.3125 13.52,-8.3516 18.332,-14.676 0.43359,-0.51953 1.0977,-0.78516 1.7695,-0.70703 0.67578,0.19141 1.1914,0.73438 1.3555,1.4141 -0.0508,0.77734 -0.41016,1.5 -1,2.0039 -0.91406,0.51953 -1.8828,0.93359 -2.8906,1.2383 l 2.7695,2.3594 c -0.70703,0.53125 -1.4141,0.94141 -2.0625,1.5312 -2.1797,2.0625 -4.3633,4.125 -6.3672,6.3672 3.6562,-2.5352 8.3711,-3.6562 10.375,-8.3711 h 0.004 c 0.52344,-0.93359 1.3906,-1.6328 2.4141,-1.9453 0.47266,0 1.8281,1.3555 1.7695,2.0039 -0.33984,0.99219 -0.98047,1.8555 -1.8281,2.4766 -1.2383,1.1211 -2.6523,2.0625 -3.9492,3.125 -8.457,7.2852 -19.316,11.172 -30.477,10.902 -2.0508,-0.34766 -4.1367,0.41406 -5.4805,2.0039 -0.70703,0.78516 -1.5703,1.4062 -2.5352,1.8281 -2.9492,1.7695 -5.8945,3.1836 -9.1953,0.76562 -18.949,29.145004 -33.488,60.926004 -43.148,94.316004 -1.9219,8.5078 -2.832,17.215 -2.7148,25.938 -1.2969,21.516 -2.1797,42.973 -3.1836,64.488 h 0.004 c 0,1.6523 0.30078,3.2891 0.88281,4.8359 3.3008,9.3125 6.6602,18.57 10.02,27.941 v -11.141 -0.004 c -2.6758,-43.969 8.9023,-87.629 33.012,-124.5 9.7852,-14.797 20.277,-29.121 30.477,-43.621 0.54297,-0.90234 1.2422,-1.6992 2.0625,-2.3594 0.83203,-0.45312 1.7266,-0.78906 2.6523,-1 0.34375,0.98438 0.51953,2.0195 0.53125,3.0664 -0.43359,1.7109 -1.0469,3.3672 -1.8281,4.9492 -7.6641,17.211 -15.562,34.367 -22.988,51.637 v 0.004 c -8.4062,21.117 -14.359,43.129 -17.746,65.605 -3.2422,17.684 -6.7773,34.777 -9.668,52.227 -2.0625,12.672 -3.0078,25.465 -4.8945,38.141 -1.8867,12.672 1.5312,23.578 3.5977,35.367 1.2383,7.0742 1.8867,14.207 2.7695,21.34 h 0.004 c 0.0937,0.76953 0.42578,1.4883 0.94141,2.0625 1.7695,-5.543 3.5352,-11.141 5.1875,-16.742 0,-0.70703 -0.53125,-1.7109 -0.70703,-2.5938 -0.82422,-3.1836 -1.6523,-6.3086 -2.2383,-9.5508 v 0.004 c -0.0312,-1.7734 -0.37109,-3.5312 -1.0039,-5.1875 -0.64844,-1.1797 0.41406,-3.7148 1.4141,-5.1875 1.5195,-0.24219 3.0703,0.19141 4.2461,1.1797 0.76562,1.1211 0.82422,4.125 0,4.6562 -3.8906,2.6523 -2.0039,6.3086 -2.1797,9.5508 0.30078,1.3398 0.79688,2.6328 1.4727,3.832 1.9258,-4.375 3.3867,-8.9414 4.3633,-13.617 0,-2.6523 -2.0039,-5.8945 -3.3008,-8.4297 -0.82422,-1.7695 -2.0039,-3.418 -2.7695,-5.1875 -0.76562,-1.7695 -1.1797,-4.4219 -3.6562,-5.8945 -0.94141,-0.69141 -1.4961,-1.7852 -1.4961,-2.9492 0,-1.1641 0.55469,-2.2578 1.4961,-2.9453 1.4688,-1.1094 3.5078,-1.0547 4.918,0.12891 1.4102,1.18361 1.8125,3.1836 0.97656,4.8203 -1.9219,2.6641 -1.4297,6.3633 1.1172,8.4297 0.88281,-4.3633 1.8281,-8.7812 2.6523,-13.262 0.0977,-0.79297 -0.043,-1.5938 -0.41016,-2.3008 -0.53125,-0.85938 -0.66797,-1.9102 -0.375,-2.8789 0.29297,-0.9687 0.98828,-1.7656 1.9062,-2.1875 2.3047,-0.96484 4.9727,-0.20703 6.4258,1.8242 0.82813,2.1328 -0.15625,4.543 -2.2383,5.4844 -1.0156,0.39844 -2.0586,0.71484 -3.125,0.94141 l -1.8281,19.926 h 1.1211 c 0.35547,-0.70703 0.76562,-1.3555 1.0625,-2.0625 3.2422,-8.4297 6.4844,-16.918 9.668,-25.406 1.0039,-2.5938 0.53125,-3.3008 -2.1797,-3.3008 h -0.004 c -1.2461,0 -2.4922,-0.11719 -3.7148,-0.35547 -2.4766,-0.47266 -4.6562,-1.4141 -7.25,0.41406 -0.83594,0.43359 -1.8203,0.49609 -2.707,0.17187 -0.88281,-0.32812 -1.5938,-1.0078 -1.9492,-1.8828 -0.75391,-2.0508 0.19531,-4.3359 2.1797,-5.2461 0.79688,-0.57812 1.8164,-0.74609 2.7578,-0.45703 0.9375,0.28906 1.6875,1.0039 2.0195,1.9297 1.8867,4.2461 5.4805,3.0078 8.5469,3.5977 l 0.64844,-0.88281 v -0.004 c -2.1094,-2.5 -4.6211,-4.6289 -7.4297,-6.3047 -3.0703,-0.82031 -6.3008,-0.82031 -9.3711,0 -2.1914,0.73438 -4.6055,-0.0859 -5.8945,-2.0039 -0.64844,-1.3555 1.1797,-4.5977 2.9492,-5.3047 1.7695,-0.707 3.7148,0.64844 5.0117,4.5977 h 3.1836 l 0.53125,-0.88281 c -2.7109,-1.9453 -5.3633,-4.0664 -8.2539,-5.8945 -2.0039,-1.1797 -3.5352,-3.5352 -2.1211,-5.3633 l -0.004,-0.004 c 1.2617,-1.2383 3.0156,-1.8438 4.7734,-1.6523 2.2383,0.41406 2.8281,2.4766 2.1211,4.7148 v 0.004 c -0.28906,0.64844 -0.625,1.2812 -1,1.8828 l 8.3711,7.4258 c -0.82422,-4.0664 -1.5312,-7.5469 -2.3594,-11.023 0,-0.58984 -0.88281,-1.0039 -1.3555,-1.5312 v 0.004 c -1.8125,-1.8242 -3.4688,-3.7969 -4.9531,-5.8945 -1.1211,-2.0039 -1.3555,-4.3633 -3.6562,-5.8945 -2.3008,-1.5312 -1.2383,-3.0078 0,-4.4219 h 0.004 c 1.2461,-1.6836 3.5703,-2.1406 5.3633,-1.0625 0.78125,0.34375 1.3672,1.0156 1.6055,1.8359 0.24219,0.81641 0.10547,1.6992 -0.36719,2.4102 -0.77734,1.1875 -1.6211,2.3281 -2.5352,3.418 l 4.5391,7.8984 0.76562,-0.41406 v -11.789 c 0,-3.0078 1.1211,-6.3086 -1.7109,-9.0195 -0.35547,-0.35547 0.94141,-3.2422 2.1211,-4.0664 h 0.004 c 1.3633,-0.27734 2.7812,0.043 3.8906,0.88281 0.0312,1.7773 -0.28906,3.5391 -0.94531,5.1875 -0.35547,1.1211 -1.7109,2.1211 -1.6523,3.125 0.35547,6.4844 1.0039,13.027 1.5898,20.219 2.0039,-4.0664 2.0625,-5.0117 0.82422,-8.3711 -0.82422,-2.3008 0,-5.8945 2.5352,-5.8945 h 0.004 c 1.7734,0.0625 3.4492,0.82422 4.6602,2.125 1.3555,1.4141 0,4.125 -2.1797,5.4219 -0.53125,0.29297 -1.4727,0.41406 -1.6523,0.82422 -1.2188,3.1484 -2.1289,6.4062 -2.7109,9.7266 0.11719,2.3125 0.63672,4.5859 1.5312,6.7227 2.0039,-4.3633 3.6562,-7.8984 5.2461,-11.438 1.2344,-1.8828 1.5781,-4.207 0.94141,-6.3672 -0.11328,-1.7305 0.63672,-3.4102 2.0039,-4.4805 0.77344,-0.50391 1.7383,-0.61328 2.6094,-0.30078 0.86719,0.3125 1.5391,1.0117 1.8125,1.8945 0.53516,0.98828 0.62109,2.1602 0.23828,3.2188 -0.38281,1.0586 -1.1992,1.9023 -2.2422,2.3203 -1.5547,0.55469 -2.7109,1.8672 -3.0664,3.4805 -1.1797,2.8867 -2.3008,5.8945 -3.7148,8.5469 h 0.004 c -1.9141,2.9258 -1.6758,6.7656 0.58984,9.4297 0.91016,1.293 1.7578,2.6289 2.5352,4.0078 l 12.969,-29.945 h -0.004 c 0.44141,-3 -1.2812,-5.9023 -4.125,-6.9531 -3.3594,-0.53125 -6.3086,-3.0664 -10.141,-1.7695 -1.7109,0.53125 -3.6562,-1.1211 -4.0664,-3.4766 -0.41406,-2.3594 1.4727,-3.2422 3.3594,-3.9492 0.82422,-0.40625 1.7852,-0.39844 2.5977,0.0195 0.81641,0.41797 1.3828,1.1992 1.5312,2.1016 0.53125,3.5977 3.0664,4.125 5.8945,4.7148 -2.2383,-3.832 -4.4805,-7.6055 -6.7773,-11.316 -0.35547,-0.53125 -1.1797,-0.76562 -1.7695,-1.2383 -2.0859,-1.5234 -4.0547,-3.1992 -5.8945,-5.0117 -1.4141,-1.4727 -2.3594,-3.0078 -4.832,-3.2422 -2.4766,-0.23438 -3.1836,-2.3008 -2.2383,-8.2539 h -0.004 c 2,0.32812 3.9727,0.82031 5.8945,1.4766 0.92188,0.67969 1.3984,1.8125 1.2383,2.9453 -1.7695,4.9531 2.7695,5.8945 4.4805,8.1953 -0.82422,-7.5469 -1.6523,-15.207 -2.5352,-22.812 -0.25391,-0.86328 -0.74609,-1.6406 -1.4141,-2.2422 -0.88281,-0.82422 -1.3828,-1.9766 -1.3828,-3.1836 0,-1.2031 0.5,-2.3555 1.3828,-3.1797 1.8125,-1.707 4.5508,-1.9727 6.6602,-0.64844 0.9375,0.87891 1.4375,2.125 1.3711,3.4102 -0.0703,1.2852 -0.69922,2.4727 -1.7266,3.25 -1.3789,1.0898 -1.9414,2.918 -1.4141,4.5977 0.53125,3.4766 1.1211,6.957 1.6523,10.434 l 0.94141,0.29297 c 0.76562,-1.7695 1.7109,-3.418 2.3008,-5.2461 0.58984,-1.8281 1.6523,-3.5352 4.125,-3.1836 2.4766,0.35547 3.8906,1.4727 3.3594,3.9492 -0.082,1.0586 -0.60937,2.0312 -1.457,2.6758 -0.84375,0.64062 -1.9219,0.89062 -2.9648,0.6875 -0.60547,-0.0899 -1.1992,-0.24609 -1.7656,-0.47266 -4.7148,5.4219 -4.7148,9.2539 0.29297,17.094 1.832,-6.8281 4.8672,-13.277 8.9609,-19.039 0.30078,-0.60938 0.48047,-1.2695 0.53125,-1.9453 0.41406,-3.4766 1.7109,-4.5977 4.7734,-4.1836 v -0.004 c 0.95703,0.0508 1.8477,0.51562 2.4375,1.2734 0.5898,0.75778 0.81641,1.7383 0.62891,2.6797 0,2.6523 -2.418,4.0078 -5.543,3.4766 h -0.88281 l -5.543,11.789 c 2.4766,-1.0039 5.3633,-1.2969 5.543,-5.0117 0,-1.1797 2.5938,-3.3594 3.3594,-3.125 0.7656,0.2344 3.7148,2.1797 3.9492,3.6562 0.11719,1.0195 -0.26172,2.0352 -1.0234,2.7227 -0.75781,0.69141 -1.8047,0.97266 -2.8086,0.75391 -1.9062,-0.28516 -3.8125,0.51172 -4.9492,2.0664 -0.78125,0.6875 -1.6523,1.2656 -2.5938,1.707 -1.2383,0.70703 -3.1836,1.1797 -3.5352,2.2383 -0.88281,2.3008 -2.0039,4.832 0,7.3672 l -0.004,0.004 c 1.1055,1.5312 2.0938,3.1484 2.9492,4.832 l 2.7695,4.832 v 0.004 c 0.38672,-0.50781 0.74219,-1.0391 1.0625,-1.5938 5.8945,-12.555 11.316,-25.051 16.918,-37.668 v 0.004 c 1.2969,-2.543 1.3047,-5.5508 0.0234,-8.0977 -1.2773,-2.5508 -3.6953,-4.3359 -6.5078,-4.8125 -0.67188,-0.0859 -1.3516,0.0391 -1.9453,0.35156 -2.7695,1.4727 -5.8945,0.82422 -8.8438,2.9492 -1.5312,1.1797 -3.7148,0 -4.4805,-2.1211 -0.78906,-1.8242 0.0234,-3.9453 1.8281,-4.7773 0.73047,-0.52344 1.6445,-0.73047 2.5312,-0.57422 0.8867,0.15625 1.6719,0.66016 2.1836,1.3984 0.97656,0.97266 2.2344,1.6133 3.5977,1.8281 -4.5117,-3.0547 -8.2812,-7.082 -11.023,-11.789 -0.35547,-0.58984 -1.5898,-0.70703 -2.4766,-0.88281 -2.2695,-0.25 -3.9219,-2.2656 -3.7148,-4.5391 0.66797,-2.3711 2.9062,-3.9492 5.3633,-3.7734 1.0391,0.0508 1.9883,0.60938 2.5391,1.4883 0.55078,0.88281 0.64062,1.9766 0.23438,2.9336 -1.2969,3.2422 0.64844,4.9531 2.3594,6.957 h -0.004 c 4.2656,4.5547 9.8164,7.6992 15.918,9.0156 l -3.2422,-4.2461 v 0.004 c -1.4805,-1.4766 -2.7852,-3.1172 -3.8906,-4.8945 -3.7617,-6.2422 -8.0391,-12.156 -12.793,-17.684 -0.35547,-0.53125 -1.4141,-0.53125 -1.9453,-1.0039 -0.53125,-0.47266 -2.7109,-2.1797 -2.5938,-3.1836 v 0.004 c 0.10938,-1.6641 0.98047,-3.1875 2.3594,-4.1289 1.0625,-0.47266 3.0078,0.64844 4.3633,1.4141 0.47266,0 0.64844,1.5312 0.53125,2.2383 -0.76562,4.0078 -0.58984,4.4219 3.3594,8.0742 v 0.004 c -0.19141,-1.3867 -0.3125,-2.7852 -0.35547,-4.1836 v -10.609 c -0.0508,-1.3242 -0.41406,-2.6172 -1.0625,-3.7734 -1.2148,-2.1602 -0.82812,-4.8672 0.94531,-6.6016 1.4766,-0.51953 3.1016,-0.39062 4.4805,0.35156 1.0898,0.66406 1.7578,1.8477 1.7578,3.125 0,1.2773 -0.66797,2.4609 -1.7578,3.125 -1.2891,0.87109 -1.957,2.4141 -1.7109,3.9492 -0.375,6.8984 0.66797,13.797 3.0664,20.277 0.6875,1.5586 1.5352,3.043 2.5352,4.4219 0,-7.8984 4.5391,-14.324 6.8398,-21.398 h -0.004 c 0.0274,-0.83203 -0.19922,-1.6562 -0.64844,-2.3594 -0.60938,-0.85937 -0.80859,-1.9414 -0.54688,-2.9648 0.26172,-1.0195 0.95703,-1.875 1.9023,-2.3398 2.2188,-1.1992 4.9883,-0.41406 6.25,1.7695 0.4375,0.90625 0.4375,1.9609 0.004,2.8672 -0.4375,0.91016 -1.2617,1.5664 -2.2461,1.7891 -1.625,0.39062 -2.8008,1.8086 -2.8867,3.4805 -0.72266,3.2188 -1.6484,6.3867 -2.7695,9.4883 3.418,-2.0039 6.4258,-3.6562 9.2539,-5.4805 0.47266,-0.29297 0,-1.4727 0.70703,-2.0625 0.70703,-0.58984 1.8867,-3.3594 3.2422,-3.7148 1.6914,-0.15625 3.3672,0.42188 4.5977,1.5898 1.6523,1.2969 -0.47266,5.6016 -2.9492,5.3633 h 0.004 c -3.0195,0.0898 -5.8906,1.3359 -8.0195,3.4805 -1.2266,0.95703 -2.5742,1.75 -4.0078,2.3555 -4.2031,1.207 -6.7734,5.4453 -5.8945,9.7266 0.16016,1.5586 0.64063,3.0625 1.4141,4.4219 1.3555,2.2383 3.1836,4.125 4.4805,6.4258 1.1875,2.3906 2.2305,4.8516 3.125,7.3672 1.7109,-4.3047 3.5352,-8.3711 5.0117,-12.613 3.6953,-10.609 7.3086,-21.242 10.848,-31.891 h -0.004 c 1.2773,-3.8984 -0.13281,-8.1758 -3.4766,-10.551 -2.4766,-1.7109 -4.9531,-3.4766 -7.5469,-4.9531 -1.7695,-0.76562 -3.5781,-1.4336 -5.4219,-2.0039 -2.4766,-1.1211 -4.8945,-2.2383 -7.25,-3.5352 -2.3594,-1.2969 -3.5352,-3.3594 -6.6016,-2.3594 -1.5898,0.47266 -4.7148,-3.5352 -3.9492,-5.4219 1.0117,-1.5742 2.5977,-2.6953 4.418,-3.125 1.9453,-0.41406 4.1836,2.418 4.0664,4.6562 h 0.004 c -0.0898,0.66797 -0.26953,1.3242 -0.53125,1.9453 l 6.6016,4.0664 0.58984,-0.47266 c -2.6523,-3.7734 -5.1875,-7.6055 -7.957,-11.375 -1.5586,-1.6562 -1.5586,-4.2383 0,-5.8945 1.5898,-2.1211 3.832,-0.88281 4.9531,0 h -0.004 c 1.0898,1.2188 1.4492,2.9258 0.94531,4.4805 -2.0039,2.6523 -0.41406,4.1836 0.82422,6.25 3.5508,5.3945 8.4219,9.7969 14.148,12.789 -1.8281,-4.1836 -4.0664,-8.6055 -5.8945,-13.203 -0.73047,-2.6016 -1.2227,-5.2656 -1.4766,-7.957 -0.0859,-2.7969 -1.1953,-5.4609 -3.1211,-7.4883 -0.74219,-0.86719 -1.0703,-2.0156 -0.90234,-3.1484 0.16797,-1.1289 0.82031,-2.1328 1.7852,-2.7461 1.7695,-1.0625 3.7148,-2.3008 5.8945,-0.35547 v 0.004 c 1.8047,2.0195 2,5.0117 0.47266,7.25 -0.6875,0.60156 -1.418,1.1523 -2.1836,1.6484 l 3.8906,15.09 h 0.82422 c 1.2969,-2.7109 2.7109,-5.4219 3.832,-8.1953 0,-0.53125 -0.47266,-1.4141 -0.76562,-2.1797 v 0.004 c -0.88672,-2.0977 -0.23047,-4.5312 1.5938,-5.8984 2.0469,-0.67578 4.2969,0.0664 5.5391,1.8281 0.80469,2.2656 -0.17188,4.7734 -2.2969,5.8945 -1.0391,0.65234 -1.8594,1.5938 -2.3594,2.7109 -1.1797,2.3594 -1.7695,4.9531 -3.0078,7.1914 l 0.004,0.004 c -1.1133,1.5273 -1.1133,3.5977 0,5.125 2.418,3.7734 4.5977,7.6641 6.8984,11.789 1.4727,-5.3047 3.1836,-10.848 4.4805,-16.445 0.35547,-1.4141 -0.53125,-3.1836 -0.70703,-4.7734 -0.41406,-4.4805 -0.70703,-8.9609 -1.1211,-13.676 h -0.004 c -1.1445,-0.15234 -2.1641,-0.80859 -2.7812,-1.7891 -0.61328,-0.98047 -0.76172,-2.1797 -0.40234,-3.2812 0.30078,-1.5195 1.2461,-2.832 2.5938,-3.5938 1.6445,-0.42188 3.3867,-0.0508 4.7188,1 0.82812,1.5039 0.82812,3.3281 0,4.8359 -1.4492,1.7109 -1.9375,4.0391 -1.2969,6.1875 0.41406,2.5938 0.53125,5.1875 0.88281,8.7227 1.8281,-8.0742 3.5352,-15.266 5.0703,-22.52 0,-0.64844 -0.70703,-1.5312 -1.0625,-2.3594 v 0.004 c -1.3477,-2.2227 -0.92969,-5.0938 1.0039,-6.8359 1.0508,-0.97266 2.4766,-1.4258 3.8945,-1.2461 1.418,0.18359 2.6836,0.98438 3.457,2.1914 0.76953,1.2031 0.96875,2.6875 0.53906,4.0547 -0.42969,1.3633 -1.4414,2.4688 -2.7656,3.0156 -1.9883,0.74609 -3.3555,2.5938 -3.4766,4.7148 -2.2383,10.078 -4.5391,20.16 -6.957,30.711 5.8594,-3.6758 10.336,-9.1914 12.734,-15.68 0.32422,-0.93359 0.32422,-1.9531 0,-2.8867 -1.1797,-3.0664 0,-6.3086 3.1836,-6.7188 1.9492,0.0273 3.7617,1.0234 4.832,2.6523 1.3555,2.5938 -0.88281,5.1875 -4.3047,5.8945 h -1.0039 c -0.47266,2.1211 -0.82422,4.2461 -1.4727,6.3086 -0.64844,2.0625 -1.6523,3.7148 -2.8867,6.4258 3.418,-2.418 7.4258,-2.418 9.1367,-6.25 1.7109,-3.832 3.7734,-1.8281 5.8945,-1.0625 h 0.004 c 0.76172,0.23828 1.3711,0.82031 1.6367,1.5742 0.26953,0.75781 0.16406,1.5938 -0.28125,2.2578 -0.35156,1.0586 -1.1094,1.9297 -2.1016,2.4297 -0.99609,0.49609 -2.1484,0.57812 -3.207,0.22266 -0.91016,-0.44141 -1.7578,-0.99609 -2.5312,-1.6484 -5.8945,4.5391 -13.793,4.7734 -18.98,10.434 h -0.004 c -0.91016,0.81641 -1.6328,1.8242 -2.1211,2.9453 -3.0078,10.078 -5.8945,20.16 -8.7812,30.238 v 0.004 c -0.0312,0.41016 -0.0312,0.82422 0,1.2344 5.3789,-0.40234 9.7969,-4.4102 10.727,-9.7266 1.0625,-2.7969 2.2852,-5.5312 3.6562,-8.1914 -0.35547,-0.58984 -0.94141,-1.2969 -1.3555,-2.1211 -0.78906,-0.99609 -1.1016,-2.2812 -0.86719,-3.5273 0.23828,-1.2461 1.0078,-2.3242 2.1055,-2.957 2.4922,-1.1016 5.4062,-0.0312 6.6016,2.4141 1.0625,2.3594 0,5.8945 -2.5938,6.4844 -2.5938,0.5899 -2.7109,1.7109 -3.3008,3.125 -1.2383,3.0078 -2.3008,5.8945 -3.418,9.1953 l 0.58984,0.53125 h -0.004 c 2.5195,-1.1602 4.9609,-2.4805 7.3125,-3.9492 0.83203,-0.86719 1.3516,-1.9883 1.4727,-3.1836 0.64844,-3.0664 3.418,-5.8945 1.8867,-9.3711 -0.35547,-0.82422 1.8281,-3.7148 2.418,-3.5977 h -0.004 c 1.8633,0.62109 3.6172,1.5352 5.1875,2.7109 -0.82422,1.4141 -1.5312,4.0664 -2.4766,4.125 -4.4219,0.35547 -3.7734,3.8906 -4.8945,6.3086 l 0.70703,0.70703 c 2.418,-2.418 4.8945,-4.7148 7.1328,-7.25 h 0.004 c 1.8555,-1.3672 2.8789,-3.5938 2.7109,-5.8945 -0.18359,-1.0625 0.13281,-2.1484 0.85938,-2.9453 0.72656,-0.79688 1.7812,-1.2109 2.8555,-1.1211 1.7148,0.46875 3.0703,1.7773 3.5938,3.4766 0,1.1211 -1.5312,2.7695 -2.5938,4.0078 -1.0625,1.2383 -2.3008,1.7695 -3.1836,2.8281 -2.8281,3.4766 -5.4805,7.0156 -8.3125,10.668 2.8281,-1.1211 6.4844,-0.41406 8.8438,-3.5352 2.3594,-3.125 3.9492,-3.0664 5.8945,-1.6523 1.9453,1.4141 3.125,4.7734 1.2383,6.6602 v 0.008 c -0.84766,1.0234 -2.1133,1.6172 -3.4453,1.6172 -1.3359,0 -2.5977,-0.59375 -3.4492,-1.6172 -0.40625,-0.48828 -0.78125,-1 -1.1211,-1.5352 -9.6094,3.2422 -19.867,4.2461 -28.473,10.434 2.0625,0 4.1836,-0.47266 6.25,-0.94141 2.0625,-0.47266 6.25,1.0625 6.7188,3.0078 v -0.004 c 0.26953,0.97266 0.13281,2.0078 -0.37891,2.875 -0.51172,0.86719 -1.3516,1.4883 -2.332,1.7227 -1.1484,0.5625 -2.4805,0.60547 -3.6641,0.12109 -1.1797,-0.48438 -2.1016,-1.4492 -2.5234,-2.6523 0,-0.53125 -0.35547,-1.1797 -0.58984,-1.7109 -2.2383,-0.77734 -4.5859,-1.1953 -6.957,-1.2383 -2.1328,0.23828 -4.0508,1.4023 -5.2461,3.1836 -5.2461,12.438 -10.078,25.051 -15.031,37.668 3.3008,-0.82422 6.6016,-1.5312 9.8438,-2.4766 2.3906,-0.89453 4.1055,-3.0156 4.4805,-5.543 1.1211,-4.3047 2.418,-8.5469 3.5352,-12.852 v 0.004 c 0.23438,-1.0508 0.23438,-2.1367 0,-3.1836 -0.84766,-2.1328 0.17578,-4.5508 2.3008,-5.4258 2.4766,-1.0625 3.9492,0.58984 4.7734,2.3594 0.8242,1.76956 0,3.8906 -2.3008,5.0117 h 0.004 c -1.0117,0.61328 -1.8125,1.5156 -2.3008,2.5938 -1.0625,2.7109 -1.8281,5.4805 -2.7695,8.6055 2.5352,0 4.3047,-0.47266 5.1289,-3.125 0.23438,-0.88281 0.85938,-1.6094 1.6953,-1.9766 0.83984,-0.36719 1.7969,-0.33594 2.6055,0.0899 1.8281,0.76562 3.418,2.418 2.3594,4.3633 -0.98438,1.3672 -2.5625,2.1758 -4.2461,2.1797 -1.9453,-0.55078 -4.0352,-0.28516 -5.7812,0.73828 -1.75,1.0234 -3.0039,2.7148 -3.4727,4.6875 6.2461,-1.0938 12.051,-3.9336 16.742,-8.1953 -1.2969,-4.2461 -2.418,-8.1328 -3.6562,-11.789 -0.29297,-0.88281 -1.5312,-1.4727 -1.7109,-2.3594 -0.17578,-0.88281 -0.64844,-3.3594 0,-4.4219 1.3555,-2.3594 3.832,-1.6523 5.4219,0 l 0.004,0.004 c 0.82422,1.1484 0.98438,2.6523 0.41406,3.9492 -3.418,3.3008 -0.70703,5.8945 0,9.2539 1.7109,-3.5352 3.3594,-6.8984 4.8945,-10.316 h -0.004 c 0.17969,-0.63672 0.17969,-1.3086 0,-1.9453 -0.41406,-2.7695 0.76562,-4.8945 3.125,-5.1875 2.35938,-0.293 3.6562,1.5312 4.125,3.418 0.47266,1.8867 -1.1211,3.6562 -3.4766,4.1836 v 0.004 c -0.91406,0.20703 -1.7031,0.78516 -2.1797,1.5898 -1.4141,3.3594 -2.6523,6.7188 -3.9492,10.141 l 0.88281,0.53125 13.5,-15.328 c 0.29297,-2.6523 0,-4.7734 0.82422,-5.8945 1.2305,-1.1094 2.9062,-1.5898 4.5391,-1.2969 1.1797,0 3.0664,2.418 2.8281,3.125 -0.875,1.5234 -2.0586,2.8477 -3.4766,3.8906 -0.64844,0.53125 -1.8281,0.53125 -2.3594,1.1211 -5.4805,6.8984 -10.906,13.852 -15.977,20.277 h 0.004 c 5.7891,-0.90234 11.117,-3.7031 15.148,-7.9609 0.34375,-0.50781 0.54687,-1.0977 0.58984,-1.707 -0.043,-1.0625 0.38281,-2.0898 1.168,-2.8047 0.78516,-0.71875 1.8477,-1.0508 2.8984,-0.91016 2.3125,0.53516 3.9219,2.6367 3.832,5.0117 -0.16797,1.1094 -0.79297,2.0977 -1.7227,2.7227 -0.92969,0.62891 -2.0781,0.83594 -3.168,0.57812 -0.84375,-0.19922 -1.6719,-0.45703 -2.4766,-0.76562 -1.2969,1.2969 -2.4766,2.7695 -3.8906,4.0078 -1.6172,1.125 -3.0664,2.4766 -4.3047,4.0078 1.8203,-0.36328 3.6016,-0.91406 5.3047,-1.6523 2.3008,-1.2969 4.8945,-1.4141 5.8945,0 0.86328,1.9062 0.44141,4.1445 -1.0586,5.6016 -0.94141,0.79688 -2.1875,1.1406 -3.4023,0.93359 -1.2148,-0.20312 -2.2773,-0.93359 -2.9062,-1.9961 -0.94141,-2.2383 -2.3594,-2.0625 -4.1836,-2.1211 -3.7734,0 -7.6055,-0.47266 -11.438,-0.64844 -0.92969,-0.11719 -1.875,0.0469 -2.7109,0.47266 -6.9062,3.8984 -14.605,6.1758 -22.52,6.6602 3.5,2.6914 8.043,3.625 12.32,2.5352 1.7109,-0.29297 3.3008,-1.1211 5.0703,-1.5312 1.6484,-0.24219 2.9414,-1.5391 3.1836,-3.1836 0.41406,-2.0039 2.0625,-3.5977 4.0664,-2.7109 1.6953,0.78516 2.9648,2.2695 3.4766,4.0664 0.0937,1.0273 -0.30078,2.0391 -1.0664,2.7344 -0.76172,0.69141 -1.8086,0.98828 -2.8242,0.80078 -4.4805,-1.4141 -7.25,2.1797 -10.906,2.8867 v 1.0039 h 0.004 c 3.8945,0.80469 7.832,1.4141 11.789,1.8281 1.2383,0 2.6523,-1.3555 3.8906,-2.1797 2.8281,-1.8281 3.832,0.82422 5.1289,2.2383 0.64062,0.64453 0.96875,1.5352 0.90234,2.4375 -0.0703,0.90625 -0.52734,1.7383 -1.2578,2.2773 -2.9492,2.7109 -8.5469,2.0039 -8.5469,-3.0078 -7.3672,2.0039 -13.32,-2.6523 -20.453,-4.6562 v 0.004 c 1.9414,4.1836 5.3047,7.5469 9.4883,9.4883 0.53125,0.29297 1.5312,0 2.3008,0 2.375,-0.60156 4.8438,0.55859 5.8945,2.7695 0.55078,2.3438 -0.89844,4.6953 -3.2422,5.25 -1.3359,0.28906 -2.7344,0.0117 -3.8516,-0.77344 -1.1211,-0.78516 -1.8633,-2 -2.043,-3.3555 -0.16797,-1.0234 -0.76953,-1.9258 -1.6523,-2.4766 -4.457,-1.918 -7.9336,-5.582 -9.6094,-10.137 -1.8594,-3.5352 -5.9531,-5.2617 -9.7852,-4.1289 -1.0898,0.52344 -1.9961,1.3672 -2.5938,2.418 -10.316,23.578 -20.633,47.629 -30.887,71.445 0,0.41406 0,0.82422 -0.64844,1.8867 l 14.68,-7.25 c -1.9102,-2.3203 -3.6641,-4.7617 -5.25,-7.3125 -0.58984,-1.0625 -0.47266,-3.5352 0,-4.0078 1.3789,-0.67578 2.9883,-0.67578 4.3633,0 0.70703,0.35547 1.1211,2.6523 0.76562,3.7148 -0.82422,2.4766 -1.0625,2.418 0.41406,4.7148 0.58984,-4.3047 1.0625,-8.6641 1.7695,-12.969 0,-1.7109 1.1211,-3.3594 1.4727,-5.0703 v 0.004 c 0.26172,-1.5234 0.26172,-3.0781 0,-4.6016 -0.41406,-2.4766 0.76562,-4.2461 2.7695,-4.4805 2.00388,-0.2344 3.0078,1.4727 4.5391,2.3008 -0.82422,1.3555 -1.3555,3.5977 -2.4766,4.0078 -1.5195,0.40234 -2.6094,1.7344 -2.7109,3.3008 -0.70703,2.7695 -1.2969,5.6016 -1.9453,8.4297 l 0.88281,0.53125 c 1.3555,-2.3008 2.8867,-4.5977 4.1836,-6.957 1.2969,-2.3594 2.3008,-3.418 4.3047,-2.5938 h 0.004 c 1.5117,0.71875 2.6484,2.0508 3.1211,3.6562 0.11328,1.0703 -0.28906,2.1289 -1.0742,2.8555 -0.78906,0.73047 -1.875,1.0508 -2.9336,0.85938 -3.5977,-0.76562 -4.3633,2.1797 -5.8945,3.7734 -2.2422,1.8438 -3.3398,4.7344 -2.8867,7.6016 5.875,-3.0547 10.961,-7.4336 14.855,-12.789 0.76562,-1.0625 0,-3.5977 -0.76562,-5.1875 -0.76562,-1.5898 -2.4766,-3.4766 -3.418,-5.4219 -0.94141,-1.9453 -1.4141,-4.9531 -3.7148,-6.8398 h -0.004 c -0.82031,-1.4023 -0.82031,-3.1406 0,-4.5391 0.82422,-0.82422 3.3008,-0.53125 4.6562,0 1.3555,0.53125 1.4727,3.0664 1.0039,3.5977 -3.3008,3.4766 0,5.8945 1.1211,9.5508 0.76562,-3.8906 1.5312,-7.0156 2.0625,-10.199 0,-0.64844 -0.53125,-1.4727 -1.0039,-2.1211 l 0.004,-0.004 c -0.73438,-0.91016 -1.0195,-2.0977 -0.78125,-3.2422 0.24219,-1.1406 0.98047,-2.1133 2.0156,-2.6523 0.76953,-0.5625 1.7539,-0.74219 2.6719,-0.48828 0.91797,0.25 1.6719,0.91016 2.0469,1.7852 0.65234,0.83594 0.87891,1.9297 0.61328,2.957 -0.26562,1.0273 -0.99609,1.875 -1.9688,2.2891 -0.83594,0.62109 -1.4219,1.5195 -1.6523,2.5352 -0.58984,4.4219 -1.0625,8.9609 -1.5312,13.441 l 1.2969,0.35547 c 1.2383,-1.9453 2.4766,-3.832 3.5977,-5.8945 1.1211,-2.0625 3.0078,-5.8945 4.5391,-8.6055 1.0625,-2.0039 2.418,-3.7148 0.82422,-6.4258 l -0.004,-0.004 c -0.41406,-1.2266 -0.28516,-2.5742 0.35938,-3.7031 0.64062,-1.125 1.7344,-1.9219 3.0039,-2.1914 2.1523,0.26562 4.0977,1.4219 5.3633,3.1836 1.3555,2.1797 -0.76563,5.1289 -3.5977,5.8945 -0.47266,0 -1.0039,0 -0.88281,0.58984 -3.5352,8.4883 -7.957,16.742 -12.852,25.641 2.3555,-1.418 4.582,-3.0352 6.6602,-4.832 2.4219,-2.4688 4.6094,-5.1523 6.5469,-8.0195 0.4375,-1.0234 0.66016,-2.125 0.64844,-3.2422 0.35547,-2.1211 1.1211,-3.7734 3.5977,-4.0078 2.4766,-0.23438 3.1836,1.7109 3.5352,3.5352 0.35547,1.8281 -1.2383,3.0078 -3.125,3.418 v 0.004 c -0.95313,0.16797 -1.8203,0.64453 -2.4766,1.3555 -1.9453,2.8281 -3.6562,5.8945 -5.8945,9.0781 3.418,-0.82422 6.6016,0 9.1367,-3.1836 1.8281,-2.1211 4.1836,-0.41406 5.543,1.2969 h -0.004 c 0.625,1.0547 0.625,2.3633 0,3.418 -0.53516,0.92578 -1.4297,1.582 -2.4688,1.8164 -1.043,0.23438 -2.1328,0.0273 -3.0117,-0.57812 -0.66016,-0.49219 -1.2539,-1.0664 -1.7695,-1.707 l -19.688,3.5977 v -0.004 c -0.59375,0.125 -1.1523,0.36328 -1.6523,0.70703 l -19.395,12.496 c 0,0 -0.41406,0.41406 -0.82422,0.88281 v 0.004 c 4.6836,0.98438 9.5625,0.11719 13.617,-2.418 3.8906,-2.5938 7.957,-4.8945 11.789,-7.4258 0.66016,-0.60938 1.2383,-1.3047 1.7109,-2.0625 1.7695,-2.0625 5.8945,-2.3008 6.3086,0 0.41406,2.3008 0.35547,3.3008 -0.35547,3.8906 v -0.004 c -1.3125,0.72266 -2.8242,0.99219 -4.3008,0.76953 -0.64844,0 -1.2969,-0.82422 -1.8867,-1.2383 l -8.0156,5.8945 v 0.76562 c 3.4766,-1.0039 6.8984,-2.1211 10.434,-3.0078 1.2383,0 3.3008,-0.41406 3.9492,0.29297 l -0.004,0.004 c 1.0703,1.3359 1.6367,3.0039 1.5938,4.7148 0,1.0039 -1.8281,2.2383 -3.0664,2.5938 -2.2383,0.64844 -4.2461,-1.2969 -5.1289,-4.5391 l -21.457,5.1875 c 1.793,2.1133 4.1367,3.6797 6.7734,4.5234 2.6367,0.8437 5.457,0.92969 8.1406,0.25 0.88281,-0.94141 1.5312,-2.1797 2.5352,-2.6523 1.0039,-0.47266 3.3008,-1.5312 4.0078,0.58984 0.65625,1.5039 0.65625,3.2148 0,4.7148 -1.3594,0.74609 -3.0039,0.74609 -4.3594,0 -1.2734,-0.98438 -2.9414,-1.293 -4.4805,-0.82422 -5.1172,1.1758 -10.453,-0.67969 -13.734,-4.7734 -2.8164,-3.5391 -7.6758,-4.707 -11.789,-2.8281 -3.7383,0.91016 -6.6367,3.8516 -7.4883,7.6016 -3.4766,10.727 -7.3086,21.34 -10.965,31.949 0,0.76562 -0.41406,1.5898 -0.58984,2.3594 l 0.58984,0.70703 c 2.8867,-1.9453 5.8945,-3.8906 8.6641,-5.8945 0.53125,-0.35547 0.47266,-1.4727 0.64844,-2.3008 0.47266,-2.0039 0.76562,-4.0664 1.3555,-5.8945 0.58988,-1.8281 2.3008,-4.3633 0.64844,-7.1328 h 0.004 c -0.42188,-0.875 -0.41797,-1.8906 0.008,-2.7656 0.42578,-0.87109 1.2227,-1.5039 2.1719,-1.7109 1.1211,0 3.4766,0.53125 3.5977,1.1797 0.35547,1.5898 0.29297,4.3047 -0.70703,4.9531 -3.7148,2.418 -3.2422,6.3086 -4.6562,9.5508 l 0.76562,0.47266 10.078,-14.68 c -2.8867,-3.6562 -3.125,-5.4805 -0.88281,-7.3672 2.2383,-1.8867 2.9492,-2.4766 4.832,-0.70703 1.8867,1.7695 2.418,5.4219 0.70703,6.4258 -5.3047,3.0078 -5.2461,9.1953 -9.0781,13.5 v -0.008 c 3.9414,-1.9219 7.2695,-4.8984 9.6094,-8.6055 1.168,-1.7773 3.2578,-2.7227 5.3633,-2.418 1.0781,0.0781 2.0391,0.71875 2.5234,1.6875 0.4843,0.96875 0.42188,2.1172 -0.16406,3.0273 -0.25,1.0273 -0.93359,1.8945 -1.8711,2.3828 -0.9375,0.48438 -2.0391,0.53906 -3.0234,0.15234 -0.58984,0 -1.0625,-0.64844 -0.82422,-0.53125 -4.7148,3.2422 -9.3125,5.8945 -13.559,9.2539 v 0.004 c -1.8711,1.7852 -3.5508,3.7578 -5.0117,5.8945 4.3047,-0.82422 8.5469,-1.4727 12.734,-2.3594 2.6523,-0.58984 5.543,0 7.3086,-3.6562 1.1797,-2.3594 3.9492,-0.94141 5.1875,0.64844 0.70312,1.3516 0.70312,2.957 0,4.3047 -0.53125,0.94141 -1.4844,1.5664 -2.5586,1.6836 -1.0781,0.11719 -2.1406,-0.28906 -2.8633,-1.0938 -0.88281,-1.0938 -2.4102,-1.4141 -3.6562,-0.76562 -4.1836,1.2383 -8.4297,2.1797 -12.672,3.1836 -0.59766,0.17188 -1.2305,0.17188 -1.8281,0 -4.4805,-1.6523 -8.1953,1.1797 -12.262,2.0625 -0.80469,0.33594 -1.4258,1 -1.7109,1.8281 -2.0039,5.5977 -3.6211,11.328 -4.832,17.152 -0.21094,4.3438 0.10547,8.6992 0.94531,12.969 0.76562,8.1953 1.5312,16.445 2.3594,24.641 0,2.8281 0.53125,5.8945 0.82422,8.5469 l 22.223,-33.836 c -4.0625,-4.1836 -5.9023,-10.047 -4.9531,-15.797 0.83203,-3.4883 2.0586,-6.8711 3.6562,-10.082 4.4648,6.2305 6.4414,13.902 5.5391,21.516 0.73828,-0.58984 1.4297,-1.2422 2.0625,-1.9453 5.4805,-5.8945 10.906,-12.086 16.504,-18.039 h 0.004 c 1.4062,-1.082 1.8281,-3.0234 1,-4.5977 -3.2344,-8.1094 -2.1719,-17.305 2.8281,-24.461 0.69531,-0.82812 1.5117,-1.543 2.418,-2.1211 0.73437,0.78906 1.3516,1.6836 1.8281,2.6523 2.457,6.9102 2.0977,14.512 -1.0039,21.16 l 19.867,-18.922 c -1.625,-4.957 -3.0039,-9.9961 -4.125,-15.09 -0.58984,-5.2148 0.50391,-10.484 3.1211,-15.031 0.35547,-0.64844 1.2383,-1.5898 1.6523,-1.5312 v -0.004 c 0.83594,0.25781 1.5195,0.85937 1.8867,1.6523 3.8945,8.0195 4.6719,17.199 2.1797,25.762 l 12.613,-11.789 c 2.418,-2.3594 5.8945,-4.4805 6.6016,-7.25 0.70703,-2.7695 -2.0039,-5.8945 -3.5352,-8.9609 -2.8594,-5.918 -2.6172,-12.867 0.64844,-18.57 0.36328,-0.80859 1.0469,-1.4258 1.8867,-1.7109 0.41406,0 1.2969,0.88281 1.6523,1.5898 v 0.004 c 4.1055,6.9609 5.7656,15.094 4.7148,23.105 4.832,-5.8945 9.7266,-11.789 14.5,-17.684 0.35547,-0.47266 0,-1.7109 0,-2.4766 -2.1719,-4.3398 -3.7969,-8.9336 -4.832,-13.676 0.16406,-4.625 1.0391,-9.1953 2.5938,-13.555 0,-0.41406 1.1797,-1.0625 1.3555,-0.94141 v -0.004 c 0.70312,0.5 1.2695,1.1719 1.6484,1.9453 3.4375,6.5781 4.8906,14.012 4.1875,21.398 l 1.1211,0.29297 c 3.0078,-4.832 6.4258,-9.4922 9.0195,-14.559 h -0.004 c 2.9062,-6.3203 8.207,-11.223 14.738,-13.617 1.0742,-0.14844 2.168,-0.14844 3.2422,0 0.082,1.1758 -0.0586,2.3555 -0.41406,3.4766 -4.3711,8.4883 -11.27,15.41 -19.746,19.809 -0.57422,0.27344 -1.0781,0.67969 -1.4727,1.1797 l -12.379,17.684 c 3.5156,-0.71094 7.082,-1.1641 10.668,-1.3555 3.6055,0.30859 7.1758,0.9375 10.672,1.8867 0.92969,0.35156 1.6445,1.1133 1.9414,2.0625 0,0.47266 -0.88281,1.6523 -1.6523,1.9453 h 0.004 c -6.0078,2.6914 -12.594,3.8477 -19.156,3.3594 -2.3047,-0.52734 -4.5391,-1.3203 -6.6641,-2.3594 l -19.277,20.75 h 0.004 c 4.5,0.14453 8.9883,0.55859 13.438,1.2383 3.5938,1.0312 7.0742,2.4336 10.375,4.1875 0.76562,0.41406 1.8281,1.5312 1.7695,2.2383 -0.35547,0.92969 -1.1523,1.6133 -2.1211,1.8281 -5.6211,0.85156 -11.293,1.3242 -16.977,1.4141 -4.457,-0.64844 -8.3359,-3.3867 -10.434,-7.3672 l -23.578,21.988 -0.004,-0.004 c 8.6133,-1.7109 17.527,0.83594 23.934,6.8398 0.53125,0.53125 1.2969,1.4141 1.1797,1.8867 -0.33203,0.72656 -1.0312,1.2227 -1.8281,1.2969 -6.2695,-0.28125 -12.512,-0.99219 -18.688,-2.1211 -2.7812,-1.0156 -5.3438,-2.5547 -7.543,-4.5391 l -19.336,18.156 v 0.76562 c 7.957,-1.7227 16.258,-0.72656 23.578,2.8281 0.90625,0.56641 1.7344,1.2383 2.4766,2.0039 -0.78906,0.70703 -1.6836,1.2812 -2.6523,1.7109 -9.1445,3.2852 -19.297,2.1328 -27.469,-3.125 l -22.695,28.176 c 3.7734,-0.76562 6.4258,-1.4727 9.1953,-1.8281 5.5156,-0.44141 11.055,0.44922 16.152,2.5938 0.88672,0.46484 1.6875,1.0859 2.3594,1.8281 -0.82422,0.70703 -1.5312,1.7109 -2.4766,2.0625 -7.3398,2.9453 -15.531,2.9453 -22.871,0 -1.1797,-0.8125 -2.6836,-1.0078 -4.0312,-0.51562 -1.3477,0.49219 -2.3711,1.6094 -2.75,2.9922 -2.7109,5.3047 -6.3086,10.141 -8.7812,15.445 -0.90234,2.7344 -1.1836,5.6328 -0.82422,8.4883 0,7.957 1.0039,15.855 1.0625,23.578 v 44.801 h -0.004 c -0.14062,1.6641 -0.39453,3.3203 -0.76562,4.9531 h -1.4727 c -0.4375,-1.7852 -0.73438,-3.5977 -0.88672,-5.4258 v -35.367 c 0,-9.7266 -0.41406,-19.453 -0.64844,-29.473 -0.0234,-1.2734 -0.39062,-2.5156 -1.0586,-3.5977 -1.9453,4.1836 -3.9492,8.2539 -5.8945,12.438 -2.7656,4.5547 -4.7578,9.5312 -5.8945,14.738 0.55859,5.2383 1.9492,10.352 4.125,15.148 0.88281,2.9492 1.8281,5.8945 2.5938,8.9609 0.23438,1.1328 0.0898,2.3164 -0.41406,3.3594 -4.832,-5.8945 -5.8945,-13.734 -9.7266,-20.633 -3.0664,11.316 -6.1914,22.637 -9.3125,34.309 -2.5352,-2.7109 -1.2969,-5.543 -0.70703,-7.957 2.418,-9.4297 4.832,-18.922 7.8984,-28.176 1.5312,-4.7148 -1.0625,-8.0156 -2.6523,-11.789 -3.2227,20.984 -6.5234,41.73 -9.9023,62.246 h -1.4141 c -0.20703,-3.082 -0.20703,-6.1719 0,-9.2539 2.8281,-19.688 5.8945,-39.375 8.6641,-58.949 0.26562,-1.082 0.26562,-2.2148 0,-3.3008 -7.625,-20.867 -15.266,-41.715 -22.93,-62.543 -0.27734,-0.71484 -0.61328,-1.4023 -1.0039,-2.0625 -0.82422,5.8945 -1.5312,10.789 -2.3008,15.738 -0.94141,6.6016 -2.0625,13.203 -2.8281,19.867 -0.30469,2.4492 -0.10547,4.9375 0.58984,7.3086 5.8945,18.273 11.789,36.488 17.391,54.82 0.44922,2.1328 0.68359,4.3047 0.70703,6.4844 l -1.2969,0.35547 c -0.75,-1.4375 -1.4219,-2.9102 -2.0039,-4.4219 -5.0703,-15.738 -10.02,-31.535 -15.031,-47.156 -0.53125,-1.6523 -1.1797,-3.2422 -2.0039,-5.543 -5.3047,26.289 -8.2539,52.285 -16.445,77.043 h -1.2383 c 0.29297,-2.1797 0.53125,-4.3633 0.94141,-6.4844 3.4766,-18.863 7.0742,-37.668 10.551,-56.531 1.0625,-5.8945 2.0039,-11.789 2.8281,-17.684 h 0.004 c 0.41406,-1.8242 0.41406,-3.7148 0,-5.5391 -5.1953,-14.547 -12.398,-28.297 -21.398,-40.852 l -1.1797,-1.4727 c -6.8398,5.8945 -14.383,4.7148 -21.988,2.1211 -0.78125,-0.42969 -1.5117,-0.94531 -2.1797,-1.5312 0.70703,-0.64844 1.2383,-1.5898 2.0625,-1.9453 5.6367,-3.0547 12.164,-4.0352 18.449,-2.7734 l 0.58984,-0.58984 -19.098,-23.578 c -2.8633,2.8867 -6.6016,4.7461 -10.629,5.2891 -4.0312,0.54688 -8.1289,-0.25781 -11.652,-2.2812 -0.88281,-0.35547 -1.4727,-1.2383 -2.2383,-1.8867 0.70703,-0.64844 1.2383,-1.5898 2.0625,-2.0039 h -0.004 c 5.2852,-2.75 11.09,-4.3555 17.039,-4.7148 l -21.988,-20.043 c -4.9023,2.2305 -9.918,4.1992 -15.031,5.8945 -3.4805,0.64453 -7.0234,0.83984 -10.551,0.58984 -0.58984,0 -1.2383,-0.53125 -1.8281,-0.76562 0.25,-0.73047 0.62891,-1.4102 1.1211,-2.0039 5.5273,-5.4336 13.227,-8.0586 20.926,-7.1328 l 0.29297,-0.82422 -24.168,-18.332 c -5.0703,9.3125 -13.441,7.957 -21.457,7.4844 -0.82422,0 -1.5898,-1.0039 -2.418,-1.5312 0.64844,-0.70703 1.1211,-1.8281 1.9453,-2.1211 5.2461,-1.7109 10.609,-3.3008 15.914,-4.8945 h 0.004 c 0.96875,-0.15234 1.8945,-0.51172 2.7109,-1.0625 l -21.223,-13.203 c -1.8125,3.043 -4.6211,5.3711 -7.9492,6.582 -3.3281,1.2148 -6.9766,1.2422 -10.324,0.0781 -1.0195,-0.35547 -1.9727,-0.875 -2.8281,-1.5312 0.82422,-0.70703 1.4727,-1.7109 2.418,-2.0625 4.7148,-1.7695 9.4922,-3.3594 14.441,-5.1289 -0.35547,0 -0.70703,-0.64844 -1.1797,-0.94141 l -22.281,-12.559 c -5.2422,-3.1328 -9.1797,-8.0508 -11.082,-13.852 -0.10156,-0.66797 -0.10156,-1.3438 0,-2.0078 7.0898,2.3438 12.988,7.3555 16.445,13.973 2.1992,3.4688 5.4102,6.1836 9.1953,7.7812 -2.5352,-7.1914 -5.543,-14.031 -2.2383,-21.871 4.7812,5.0898 7.8711,11.535 8.8398,18.453 0.14453,0.71875 0.14453,1.4609 0,2.1797 -1.5312,4.0078 0.82422,5.8945 4.0078,7.1914 3.18358,1.2969 6.8984,3.7148 10.551,5.8945 h 0.004 c -0.91016,-2.5977 -1.543,-5.2852 -1.8867,-8.0156 0,-4.7148 0.47266,-9.4922 0.88281,-14.207 0,-0.64844 0.94141,-1.2383 1.4141,-1.8867 0.70703,0.58984 1.5898,1.0625 1.9453,1.8281 3.4883,6.3789 4.1289,13.93 1.7695,20.809 -0.35547,0.94141 -0.64844,1.9453 -1.0039,2.9492 l 26.348,17.684 0.004,-0.004 c -2.0938,-5.3008 -2.0938,-11.199 0,-16.504 0.65234,-1.0781 1.4688,-2.0547 2.418,-2.8867 0.80078,0.94531 1.4766,1.9961 2.0039,3.1211 2.457,6.5508 2.7891,13.707 0.94141,20.457 7.3086,5.8945 14.559,11.789 22.457,18.273 h 0.004 c -1.6602,-6.0195 -0.64844,-12.461 2.7695,-17.684 0.33594,-0.57031 0.85547,-1.0078 1.4727,-1.2383 0.67969,0.44531 1.2148,1.082 1.5312,1.8281 2.1992,5.2734 2.0508,11.23 -0.41016,16.387 -0.81641,1.1602 -1.1211,2.6055 -0.84375,4 0.27734,1.3906 1.1172,2.6094 2.3164,3.3672 5.8945,5.8945 11.789,11.789 17.98,18.215 -0.85156,-2.8398 -0.84375,-5.8672 0.0274,-8.6992 0.87109,-2.8359 2.5664,-5.3438 4.8633,-7.2148 4.125,4.0078 3.7148,12.852 -0.82422,21.16 5.6016,7.6055 11.258,15.207 17.211,23.578 -0.58984,-6.9609 1.9375,-13.824 6.8984,-18.742 0.67188,-0.71094 1.5664,-1.1719 2.5352,-1.2969 0.47266,0 1.2969,1.3555 1.3555,2.1211 0.70703,8.4883 0.35547,16.625 -7.25,22.223 l 12.555,25.82 c 0.82422,-5.3047 1.5312,-10.199 2.2383,-15.09 1.0039,-7.4258 2.0625,-14.855 2.9492,-22.34 v -0.004 c 0.19531,-1.3164 0.0351,-2.6602 -0.47266,-3.8906 -3.832,-8.6055 -7.8398,-17.094 -11.789,-25.641 -0.67969,-1.7695 -2.4102,-2.9062 -4.3008,-2.832 -3.6094,-0.42188 -7.1914,-1.0508 -10.73,-1.8828 -1.2188,-0.17969 -2.3555,-0.73828 -3.2422,-1.5938 -1.2656,-1.2852 -2.0391,-2.9766 -2.1797,-4.7734 0,-2.1211 2.5938,-2.1211 4.3633,-1.7695 3.418,0.64844 6.7773,1.5312 10.668,2.418 l -11.082,-18.629 c -2.6875,1.1523 -5.4961,2 -8.3711,2.5352 -2.3086,0.0625 -4.5938,-0.44531 -6.6602,-1.4727 -1.0352,-0.78906 -1.5742,-2.0703 -1.4141,-3.3594 0.71875,-1.1953 1.9258,-2.0117 3.3008,-2.2422 h 9.9023 l -9.7852,-13.793 c -2.3477,1.2812 -4.8164,2.3281 -7.3672,3.125 -2.0039,0.23438 -4.0352,-0.0508 -5.8945,-0.82422 -0.97266,-0.71094 -1.5039,-1.8711 -1.418,-3.0664 0.625,-1 1.6641,-1.6719 2.832,-1.8281 h 9.6094 c -3.3008,-4.125 -6.6602,-8.3711 -10.141,-12.555 -0.35547,-0.41406 -1.4727,-0.29297 -2.1797,0 -2.3594,0.53125 -4.5977,1.2969 -6.957,1.7109 v -0.004 c -1.4023,0.26953 -2.8438,0.26953 -4.2461,0 -2.1797,-0.58984 -4.2461,-1.8867 -3.4766,-4.3047 v 0.004 c 0.92578,-1.375 2.418,-2.2617 4.0664,-2.418 2.9766,-0.0586 5.9531,0.11719 8.9023,0.53125 -5.1289,-5.8945 -9.668,-10.965 -14.266,-15.977 -0.35547,-0.35547 -1.5312,0 -2.1797,0 -1.3984,0.88281 -2.9062,1.5742 -4.4805,2.0664 -1.9922,0.29297 -4.0312,0.0508 -5.8945,-0.71094 -1.4883,-1.0039 -2.3711,-2.6836 -2.3594,-4.4766 0,-1.2969 2.5352,-2.418 4.125,-3.0078 1.8203,-0.25391 3.6641,-0.25391 5.4844,0 l -10.375,-10.668 c -3.125,1.2969 -6.1914,2.5938 -9.2539,3.7734 v -0.004 c -1.0547,0.39844 -2.1836,0.53906 -3.3008,0.41406 -2.418,-0.47266 -5.0703,-1.1211 -5.3047,-4.0078 -0.2344,-2.8867 2.3594,-3.1836 4.3633,-3.7148 h -0.004 c 2.1914,-0.625 4.418,-1.1367 6.6602,-1.5312 l -11.023,-12.969 c -3.0664,1.1797 -5.3633,2.1797 -7.7227,2.8867 h 0.004 c -1.0977,0.32812 -2.2656,0.32812 -3.3633,0 -2.1797,-0.70703 -4.6562,-1.8867 -4.4219,-4.5391 0.23437,-2.6523 3.0078,-2.6523 5.1875,-2.7109 h 4.832 c -4.6562,-4.3633 -8.6055,-8.3125 -12.793,-11.789 -0.58984,-0.53125 -2.3008,0 -3.4766,0 -3.8906,0.41406 -7.7812,0.82422 -11.789,1.1211 h 0.004 c -0.51953,0.0664 -1.043,-0.0586 -1.4727,-0.35547 -1.0625,-1.0039 -2.0625,-2.1211 -3.0664,-3.2422 1.2383,-0.88281 2.418,-2.418 3.7734,-2.5938 3.3164,-0.17188 6.6445,-0.17188 9.9609,0 -3.0273,-3.6172 -6.2734,-7.043 -9.7266,-10.254 -1.3555,-1.1211 -4.4219,-0.35547 -6.6016,0 -4.3516,0.82031 -8.8516,-0.0234 -12.613,-2.3594 -0.88281,-0.64844 -1.1797,-2.1797 -1.7695,-3.3008 1.0039,-0.53125 2.1211,-1.5898 3.125,-1.5312 4.0664,0.41406 8.1328,1.1797 12.734,1.4727 -4.543,-3.7148 -8.7266,-7.4883 -13.68,-10.672 -5.0508,-2.5742 -9.0078,-6.8867 -11.141,-12.141 -0.82422,-2.4766 -0.82422,-4.9531 1.7109,-6.3086 1.0664,-0.51562 2.2969,-0.57422 3.4102,-0.16406 1.1133,0.41406 2.0078,1.2578 2.4844,2.3438 2.5352,4.1836 4.5977,8.6641 7.0156,12.91 1.2891,2.1133 2.7891,4.0859 4.4805,5.8945 1.7109,1.8281 3.832,3.3594 5.8945,5.2461 -0.78516,-2.6797 -1.3555,-5.4219 -1.7109,-8.1914 0,-1.4727 1.2383,-3.0078 1.8867,-4.4805 1.2969,1.0039 3.418,1.7109 3.7734,3.0078 1.1797,4.2461 1.6523,8.7227 2.5352,13.086 0.19531,1.3555 0.74219,2.6328 1.5898,3.7109 3.125,3.125 6.543,5.8945 9.8438,9.0195 -0.41797,-3.6797 -0.63281,-7.3789 -0.64844,-11.082 0,-1.1797 1.5312,-3.2422 2.3594,-3.3008 1.5664,0.125 2.9922,0.94922 3.8906,2.2383 2.2578,4.5547 2.5742,9.8281 0.88281,14.621 -0.77734,1.7383 -0.17578,3.7852 1.4141,4.832 3.5352,3.0078 6.8984,6.25 10.727,9.7266 0,-3.1836 -0.47266,-5.8945 -0.47266,-8.6055 h 0.004 c -0.10938,-1.2422 0.13672,-2.4883 0.70703,-3.5938 0.64844,-1.0039 2.0039,-2.3008 2.9492,-2.2383 v -0.004 c 1.3828,0.20703 2.6055,1.0039 3.3594,2.1797 1.793,3.2695 1.793,7.2266 0,10.496 -1.1992,1.6641 -1.6016,3.7695 -1.1016,5.7578 0.5,1.9883 1.8516,3.6562 3.6953,4.5547 3.0039,2.457 5.8438,5.1172 8.4883,7.9609 v -6.8984 c 0,-3.4766 1.7109,-5.8945 3.832,-5.8945 2.1211,0 4.1836,2.2383 4.1836,5.8945 -0.0937,3 -0.67187,5.9648 -1.7109,8.7852 -1.0078,2.0586 -0.38672,4.5469 1.4766,5.8945 2.7109,2.3008 5.2461,4.7734 7.7812,7.0742 0,-1.5898 0.35547,-3.7148 0.76562,-5.8945 v -0.004 c 0.19922,-1.3359 0.74609,-2.5977 1.5898,-3.6523 0.94922,-0.90625 2.2305,-1.375 3.5391,-1.2969 0.88281,0 2.0039,1.4141 2.3594,2.418 h -0.004 c 0.99609,3.7734 0.30859,7.793 -1.8867,11.02 -1.3477,2.0273 -0.91016,4.75 1.0039,6.25 4.0078,4.2461 7.7812,8.6641 11.789,13.32 0.0937,-2.6367 0.42969,-5.2617 1.0039,-7.8398 0.47266,-1.4727 2.2383,-2.5352 3.4766,-3.7734 1.1211,1.4727 3.2422,2.9492 3.1836,4.3633 -0.31641,3.6094 -1.0508,7.1719 -2.1797,10.613 -0.70312,1.4766 -0.36719,3.2383 0.82422,4.3594 2.7695,3.0664 5.2461,6.3672 8.1328,9.9609 v 0.004 c 0.17188,-2.6953 0.52344,-5.375 1.0625,-8.0195 0.58984,-2.2383 1.2383,-4.9531 4.3633,-4.832 1.8867,0 3.5352,3.7148 2.7695,6.6016 -0.79688,2.8828 -1.8633,5.6875 -3.1836,8.3711 -1.0977,1.5391 -0.94922,3.6406 0.35547,5.0117 2.6523,3.3008 5.0703,6.7773 7.4844,10.078 0.82422,-3.082 1.8281,-6.1133 3.0078,-9.0781 0.53125,-1.0625 2.3594,-1.5898 3.5977,-2.3594 0.76562,1.3555 2.3594,2.8867 2.1211,3.9492 -1.1797,4.3633 -2.8867,8.5469 -4.6562,13.559 l 10.609,17.684 c 0.41406,-2.7109 0.53125,-5.1289 1.0625,-7.4258 h -0.004 c 0.28516,-1.6289 0.99609,-3.1562 2.0625,-4.4219 1.2188,-1.1484 2.8711,-1.7305 4.5391,-1.5898 0.88281,0 2.2383,2.4766 2.0625,3.5977 v -0.004 c -0.28906,3.6055 -1.25,7.125 -2.8281,10.375 -2.8203,4.1445 -2.8203,9.5938 0,13.734 2.6016,4.7734 4.9258,9.6953 6.957,14.738 0,0.53125 0.58984,1.0039 1.2383,2.1211 1.2969,-11.789 2.5938,-22.578 3.832,-33.543 0.58984,-5.0703 1.1797,-10.141 1.5898,-15.207 0.10938,-1.1953 -0.27344,-2.3906 -1.0625,-3.3008 -16.867,-14.398 -31.457,-31.273 -43.266,-50.043 -14.699,-21.574 -29.336,-43.188 -43.914,-64.844 -1.25,-1.6602 -2.332,-3.4375 -3.2422,-5.3047 -0.32422,-1.2109 -0.46094,-2.4609 -0.41406,-3.7148 1.3086,0.16797 2.582,0.54688 3.7734,1.1211 1.7305,1.5039 3.3633,3.1211 4.8906,4.832 18.688,18.98 37.492,37.902 55.941,57.121 9.6094,10.02 18.629,20.574 27.941,30.949 0.57812,0.71094 1.1094,1.457 1.5898,2.2383 l 0.82422,-0.47266 h 0.004 c 0.48828,-3.9141 0.48828,-7.875 0,-11.789 -5.8242,-20.449 -16.363,-39.246 -30.77,-54.879 -13.762,-15.168 -28.941,-28.988 -45.332,-41.266 -2.0039,-1.5898 -4.0078,-3.3008 -5.8945,-5.1289 -5.3047,3.4766 -9.5508,0.35547 -13.91,-2.7695 h -0.004 c -6.0078,4.6602 -13.441,7.0977 -21.043,6.8984 -5.7109,-0.67969 -11.367,-1.7852 -16.918,-3.3008 -1.2969,0 -2.5352,-0.76563 -3.832,-0.94141 -1.2968,-0.17578 -2.418,-1.2383 -1.9453,-3.4766 v -0.004 c 9.043,4.0195 19.066,5.2891 28.828,3.6562 -0.82422,-0.0898 -1.6562,-0.0898 -2.4766,0 -7.4258,1.8867 -14.031,-1.3555 -20.867,-3.2422 -0.60938,-0.27344 -1.0469,-0.82031 -1.1797,-1.4766 0,-0.41406 0.53125,-1.3555 0.94141,-1.4141 0.65234,0.0742 1.2695,0.33984 1.7695,0.76562 0.88281,0.53125 1.5898,1.5312 2.5352,1.7695 4.8945,1.0625 9.8438,2.0039 15.562,3.125 l -19.984,-7.25 h -2.0625 c -0.64844,0 -1.8867,-0.76562 -2.0039,-1.4141 -0.0742,-0.875 0.27344,-1.7305 0.94141,-2.3008 0.47266,0 1.5898,0 2.3008,0.70703 0.70703,0.70703 1.1211,1.2969 1.7695,1.5312 v 0.004 c 8.5234,3.4609 17.68,5.1094 26.879,4.832 -6.4844,-1.5312 -13.793,-3.1836 -21.043,-4.9531 -1.1211,0 -2.1211,-1.0625 -3.1836,-1.1211 -3.418,0 -2.7695,-1.8281 -1.4727,-3.832 3.5977,4.6562 9.2539,3.7148 13.734,5.8945 -4.8945,-2.7109 -9.8438,-5.4805 -14.797,-8.1328 h -1.5898 -0.004 c -0.92969,-0.80859 -1.6406,-1.8438 -2.0625,-3.0039 0,0 0.58984,-1.6523 0.82422,-1.6523 0.82031,0.12891 1.6055,0.43359 2.3008,0.88672 1.4727,0.76562 2.9492,1.7109 4.4805,2.5352 v -0.004 c 7.4531,3.7852 15.387,6.5391 23.578,8.1953 0.66797,0.0547 1.3281,0.21094 1.9453,0.47266 l -28.707,-11.789 v -1.4141 c 0.82422,0 2.0039,-0.94141 2.3008,-0.64844 v -0.004 c 4.6914,3.3711 9.9102,5.9414 15.441,7.6055 0.76562,0.38281 1.6289,0.52734 2.4766,0.41406 -0.70703,-0.33984 -1.3945,-0.71094 -2.0625,-1.1211 -4.5391,-2.7109 -9.0195,-5.4805 -13.559,-8.3125 -1.8867,-1.1797 -3.832,-2.3594 -5.8945,-3.6562 v 0.004 c -0.57031,-0.52344 -0.92578,-1.2383 -1.0039,-2.0039 0.082,-0.60156 0.49219,-1.1016 1.0625,-1.2969 0.67969,-0.13281 1.3789,0.0156 1.9453,0.41016 3.2148,2.8164 6.6445,5.3789 10.258,7.6641 7.25,3.5977 14.797,6.4844 22.281,9.6094 0.98828,0.23828 2.0195,0.23828 3.0078,0 -8.9375,-2.3281 -17.441,-6.0898 -25.172,-11.141 -2.582,-1.8281 -5.0625,-3.793 -7.4258,-5.8945 -0.35547,-0.29297 0,-1.3555 0,-2.0039 0,-0.64844 1.3555,0 1.7695,0.35547 l -0.004,-0.004 c 1.3008,1.4922 2.7422,2.8516 4.3047,4.0664 5.9375,3.5078 12.078,6.6562 18.391,9.4336 -6.3086,-4.6562 -12.613,-9.3125 -18.98,-13.91 -2.3008,-1.6523 -4.7734,-3.0078 -7.1328,-4.5977 -0.53125,-0.35547 -1.1797,-1.1797 -1.1211,-1.7109 0.18359,-0.77344 0.70312,-1.4219 1.418,-1.7695 0.73828,-0.20703 1.5352,-0.0312 2.1211,0.47266 8.5547,7.9102 18.035,14.762 28.234,20.395 l 0.64844,-0.82422 c -5.8945,-4.3047 -11.789,-8.6641 -17.684,-12.91 -2.3594,-1.6523 -4.9531,-3.0078 -7.3672,-4.5977 -0.35547,0 -0.35547,-1.1211 -0.47266,-1.7109 -0.11719,-0.58984 1.4727,-0.58984 1.8281,-0.29297 4.4219,2.9492 8.8438,5.8945 13.086,9.0781 4.2461,3.1836 6.7773,5.3633 10.141,8.0742 l 1.3516,0.0586 c -3.7734,-3.418 -7.4258,-6.957 -11.375,-10.199 -3.9492,-3.2422 -7.1914,-5.3633 -10.848,-7.8984 -0.64844,-0.41406 -1.5312,-0.41406 -2.1797,-0.76562 -0.87109,-0.4375 -1.6211,-1.0859 -2.1797,-1.8867 0,-0.41406 0.82422,-1.9453 1.3555,-2.0039 0.53128,-0.0586 1.5898,0.76562 2.3008,1.3555 0.70703,0.58984 0.53125,1.1797 1.0039,1.4727 l 18.688,11.789 -0.004,0.004 c -3.8047,-4.6367 -8.543,-8.4141 -13.914,-11.082 -0.71094,-0.40625 -1.3633,-0.90234 -1.9453,-1.4727 0,0 0.41406,-0.94141 0.53125,-0.88281 v -0.004 c 0.71875,0.1875 1.4141,0.46484 2.0625,0.82422 2.418,1.3555 4.832,2.7109 7.1914,4.2461 5.8477,4.8477 10.609,10.875 13.973,17.684 0.43359,0.89453 1.1328,1.6367 2.0039,2.1211 -1.4727,-2.7695 -2.7695,-5.6016 -4.3633,-8.1953 v 0.004 c -4.7148,-7.6758 -11.129,-14.172 -18.746,-18.98 -0.82422,-0.53125 -2.0039,-0.58984 -2.8281,-1.1211 -0.52344,-0.4375 -0.875,-1.043 -1.0039,-1.7109 0,-0.29297 0.47266,-1.1211 0.82422,-1.1211 l 0.004,0.004 c 0.66016,-0.0508 1.3203,0.11719 1.8867,0.46875 1.1016,0.67969 2.1445,1.4492 3.1211,2.3008 4.4805,3.5352 8.9609,7.0742 13.383,10.668 0.82422,0.64844 1.5312,1.5312 2.4766,2.1797 -2.0039,-6.1914 -7.8984,-8.6641 -12.379,-12.496 1.3555,-0.88281 7.0156,2.0625 10.141,5.8945 h -0.004 c 2.4531,3.1133 4.6992,6.3828 6.7227,9.7852 -1.1484,-6.043 -4.6484,-11.387 -9.7266,-14.852 -2.7695,-1.7109 -5.543,-3.5352 -8.2539,-5.4219 v -0.004 c -0.51562,-0.40625 -0.85547,-0.99609 -0.94531,-1.6484 0,-0.47266 0.58984,-1.1797 1.0625,-1.2969 0.58984,-0.0274 1.1641,0.18359 1.5938,0.58984 1.1445,1.2969 2.4297,2.4609 3.8281,3.4766 5.3281,2.8672 9.7852,7.1172 12.898,12.305 3.1128,5.1878 4.7656,11.121 4.7891,17.168 -0.22266,1.9219 0.85938,3.7539 2.6523,4.4805 5.1211,3.1367 7.3594,9.4258 5.3633,15.09 34.25,25.996 66.609,53.82 81.051,97.617 0.70703,-8.8438 1.4727,-16.801 1.7695,-24.758 -0.0469,-2.6484 -0.64844,-5.2578 -1.7695,-7.6641 -4.832,-11.789 -9.5508,-23.578 -14.914,-34.66 -2.3828,-4.043 -5.2969,-7.75 -8.6641,-11.023 -12.918,-14.566 -24.742,-30.074 -35.367,-46.391 -19.539,-31.102 -33.504,-65.371 -41.266,-101.270006 -2.6523,-11.789 -4.5977,-24.051 -7.0156,-36.074 -0.82422,-4.125 -2.1797,-8.1953 -3.125,-12.32 l 0.004,-0.0039 c -0.0859,-1.3242 0.0352,-2.6562 0.35156,-3.9492 0.94141,1.0039 2.2383,1.7695 2.8281,2.9492 6.957,15.207 13.914,30.535 21.281,45.684 16.035,33.069996 33.953,64.843996 52.227,96.968996 5.8945,10.078 10.258,20.926 15.328,31.418 0.25,0.46484 0.71484,0.77344 1.2383,0.82422 -1.0039,-3.7734 -1.8867,-7.6641 -3.0664,-11.375 -4.4805,-14.441 -9.3125,-28.824 -13.5,-43.328 h 0.004 c -3.7383,-14.25 -5.9922,-28.848 -6.7227,-43.562 -0.88281,-10.727 -0.88281,-21.456996 -1.5312,-32.241996 -0.14844,-0.82031 -0.14844,-1.6562 0,-2.4766 0.52344,-1 1.1172,-1.9648 1.7695,-2.8867 0.76562,0.76562 1.8867,1.4141 2.1211,2.3008 10.551,34.366996 21.457,68.612996 31.359,103.159996 4.8633,18.266 7.3008,37.094 7.25,56 0,9.7266 -0.82422,19.395 -0.88281,29.121 v -0.004 c 0.32031,3.2148 1.0117,6.3789 2.0625,9.4336 h 1.0039 c 0.35547,-6.7773 0.88281,-13.617 1.1211,-20.453 0.70703,-26.703 1.6523,-53.465 1.8867,-80.168 l -0.004,-0.004 c 0.24609,-30.824 -3.0156,-61.574 -9.7266,-91.663998 -0.53125,-2.3008 -0.94141,-4.6562 -1.3555,-7.0156 -0.41406,-2.3594 -0.64844,-4.7148 -1.0039,-7.3672 h 0.004 c -4.0742,-0.56641 -7.3281,-3.6758 -8.0781,-7.7188 -14.777,0.59766 -29.137,-5 -39.613,-15.445 -0.94141,-0.82422 -2.0625,-1.4727 -3.0664,-2.3008 -1.0039,-0.82422 -2.4766,-3.2422 -1.0039,-4.8945 l 0.004,0.0039 c 1.0156,-1.0391 2.4453,-1.5586 3.8906,-1.4141 2.3594,0.64844 2.0039,2.8867 1.7695,4.7734 -0.16406,0.55078 -0.38281,1.082 -0.64844,1.5898 8.8828,7.4727 19.578,12.477 31.008,14.504 -3.2422,-1.5312 -6.6016,-2.7695 -9.6094,-4.5391 -5.8945,-3.5352 -11.789,-7.3672 -17.684,-11.141 -0.58203,-0.55078 -0.88281,-1.3281 -0.82812,-2.125 0.21484,-0.66016 0.74609,-1.168 1.418,-1.3555 0.82422,0 2.1211,0.58984 2.3008,1.1797 1.1211,3.9492 4.9531,4.5977 7.5469,6.7188 -3.5352,-4.6562 -7.0156,-9.3125 -10.551,-13.91 h -0.008 c -0.41016,-0.54297 -0.99219,-0.9375 -1.6484,-1.1211 -1.4297,-0.125 -2.6406,-1.1016 -3.0664,-2.4727 -0.42969,-1.3672 0.0156,-2.8594 1.1211,-3.7734 0.80469,-0.71094 1.918,-0.95312 2.9453,-0.64844 0.82422,0.47266 1.7109,2.3008 1.4141,2.8867 -1.2969,2.418 0.29297,3.6562 1.5312,5.1289 h 0.004 c 5.5625,7.2031 12.203,13.508 19.688,18.688 l 2.4766,1.4141 c 0,0 0.35547,0 0,0 l -13.793,-15.328 c -1.7812,-1.8672 -3.4531,-3.8359 -5.0117,-5.8945 -0.53125,-0.76562 0,-2.1797 0,-3.1836 0,-1.0039 1.4727,-1.0039 1.6523,-0.82422 0.17578,0.17578 2.2383,1.9453 2.0039,2.6523 -0.58984,2.3008 0.76562,3.4766 2.0039,4.832 2.8867,3.3008 5.8945,6.543 8.7227,9.7852 v 0.0039 c 0.66016,0.76562 1.5156,1.3359 2.4766,1.6484 -2.418,-3.7148 -5.1289,-7.25 -7.1914,-11.141 -2.0625,-3.891 -4.3633,-9.8438 -6.543,-14.738 -0.77344,-1.1055 -1.4648,-2.2656 -2.0625,-3.4766 -0.38281,-1.3086 -0.38281,-2.6992 0,-4.0078 0,-0.35547 2.6523,-0.58984 2.7695,-0.35547 0.44531,1.2305 0.6875,2.5273 0.70703,3.832 0,0.53125 -0.29297,1.1797 0,1.6523 4.7656,12.977 12.52,24.648 22.637,34.07 0.53906,0.44922 1.1914,0.73438 1.8867,0.82422 l -2.9492,-3.5352 -2.5938,-3.5352 c -5.9023,-7.8164 -10.668,-16.43 -14.145,-25.586 0,-0.41406 -0.64844,-0.76562 -0.82422,-1.1797 -0.17578,-0.41406 -0.41406,-1.5898 -0.58984,-2.3594 0.76563,0 1.8867,-0.64844 2.3008,-0.35547 l -0.004,0.0039 c 0.625,0.67578 1.0547,1.5156 1.2383,2.418 v 2.1211 c 3.3086,6.0781 6.9258,11.98 10.844,17.684 -1.5312,-3.418 -3.2422,-6.7773 -4.5977,-10.258 -1.3555,-3.4766 -2.1797,-7.3672 -3.5352,-10.906 -0.88281,-2.1797 -2.5938,-4.0664 -3.5352,-6.25 v 0.00391 c -0.52734,-1.1602 -0.52734,-2.4922 0,-3.6523 0.82031,-0.8125 2,-1.1484 3.1211,-0.88672 0.76562,0.35547 1.0039,2.0039 1.2383,3.125 0.23438,1.1211 0,1.5898 0,2.3008 4.1055,14.445 10.688,28.066 19.453,40.258 0.72266,1.2266 1.5938,2.3516 2.5938,3.3633 -0.0391,-1.2773 -0.23438,-2.5469 -0.58984,-3.7734 -5.8945,-13.086 -11.789,-26.055 -17.684,-39.082 0,-0.64844 -1.2383,-0.94141 -1.7109,-1.5312 v -0.00391 c -0.25391,-0.51953 -0.25391,-1.1289 0,-1.6484 0.4375,-0.53516 1.0391,-0.91016 1.7109,-1.0625 0.29297,0 0.88281,0.47266 1.0625,0.88281 2.9883,6.3672 5.9336,12.734 8.8438,19.098 2.1797,4.8945 4.3047,9.8438 6.6016,14.68 l -0.004,0.0039 c -2.418,-12.238 -6.7539,-24.016 -12.848,-34.898 -0.64844,-0.58984 -1.5352,-1.0039 -2.2422,-1.5898 -0.70703,-0.58984 -1.4727,-1.5898 -1.2969,-2.0625 v -0.00391 c 0.46875,-1.0195 1.3125,-1.8242 2.3594,-2.2383 0.89844,-0.082032 1.7773,0.32031 2.2969,1.0625 2.0039,3.7734 3.9492,7.6055 5.8945,11.789 2.7695,5.8945 5.3047,12.379 7.957,18.57 l 0.004,-0.0039 c -0.34375,-6.0938 -1.7578,-12.082 -4.1875,-17.684 -0.82422,-2.0039 -1.0039,-4.5977 -3.9492,-5.0117 -0.35547,0 -0.94141,-1.2969 -0.76562,-1.4141 0.51953,-0.70703 1.2383,-1.2383 2.0625,-1.5312 0.73828,0.011718 1.4102,0.41797 1.7695,1.0586 6.2969,11.336 9.1445,24.266 8.1914,37.199 v 3.832 -0.0039 c 1.4023,-7.5078 1.3008,-15.223 -0.29297,-22.691 -1.4727,-5.8945 -3.3008,-11.789 -5.2461,-17.684 -0.29297,-1.0039 -1.9453,-1.4727 -2.7109,-2.418 -0.76562,-0.94531 -2.0625,-2.7734 -1.7109,-3.4219 0.66406,-1.1914 1.8359,-2.0156 3.1836,-2.2383 0.82422,0 1.9453,1.4141 2.5352,2.418 0.58984,1.0039 0.53125,2.3594 1.1211,3.3008 3.1133,5.8672 5.1133,12.266 5.8945,18.863 0.22266,2.2031 0.76172,4.3672 1.5898,6.4258 -0.58984,-6.3672 -1.1211,-12.676 -2.1211,-19.219 0,-0.35547 -0.47266,-0.64844 -0.58984,-1.0625 -0.11719,-0.41406 -0.29297,-2.1211 -0.41406,-3.2422 h 1.9453 c 0.42969,1.1211 0.70703,2.2891 0.82812,3.4805 v 1.9453 c 2.2852,9.8672 2.5469,20.094 0.76562,30.062 -0.0312,0.43359 -0.0312,0.86328 0,1.2969 z m 16.094,435.62 c 0.35547,-1.0625 0.64844,-1.5898 0.76562,-2.1797 4.5195,-19.648 9.0391,-39.477 13.559,-59.477 v -0.004 c 0.38281,-1.5 0.5,-3.0547 0.35156,-4.5977 -0.76562,-8.3125 -1.5898,-16.625 -2.6523,-24.875 -0.41406,-3.3008 -0.58984,-7.6641 -2.6523,-9.6094 -8.4883,-7.7812 -17.684,-14.855 -27.234,-22.695 -0.35547,1.9453 -0.53125,2.7109 -0.58984,3.5352 -1.7109,14.383 -3.4766,28.824 -4.9531,43.207 l 0.004,0.004 c -1.0664,4.1562 -1.0664,8.5156 0,12.672 4.7734,12.203 9.4297,24.523 13.969,36.844 3.0078,8.8438 6.0703,17.801 9.4336,27.176 z m -30.773,-244.98 c -0.10547,-0.85547 -0.26172,-1.7031 -0.46875,-2.5352 -0.47266,-1.9453 -1.0039,-3.832 -1.5312,-5.8945 h -0.004 c -6.0703,-20.223 -14.875,-39.52 -26.172,-57.355 -20.984,-35.367 -39.789,-72.27 -57.18,-109.7 -1.8281,-4.0078 -3.7148,-7.8984 -5.8945,-11.789 v -0.0039 c 0.0117,2.0859 0.26953,4.1641 0.76563,6.1875 4.0078,16.977 7.1328,34.309 12.145,50.988 v 0.004 c 11.238,37.273 29.75,71.957 54.469,102.04 7.7812,9.4336 15.914,18.746 23.871,28.062 z m 92.605,-94.316 -0.76562,-0.41406 c -7.5469,11.023 -15.266,21.93 -22.637,33.012 h 0.004 c -13.965,20.312 -24.258,42.918 -30.418,66.785 -3.3477,14.719 -5.3203,29.719 -5.8945,44.801 -1.1836,15.277 -0.46875,30.641 2.1211,45.742 1.0039,5.1875 2.1797,10.316 3.2422,15.445 0.59766,-1.7109 0.95312,-3.4961 1.0625,-5.3047 1.3555,-11.258 2.3594,-22.637 4.2461,-33.777 2.8867,-17.684 6.4258,-35.016 9.5508,-52.582 h -0.004 c 2.75,-19.012 7.4922,-37.684 14.148,-55.703 7.3672,-18.098 15.738,-35.84 23.578,-53.762 0.64844,-1.4141 1.1797,-2.7109 1.7695,-4.0078 z m -53.699,231.6 v -0.41406 c 0,-0.41406 -0.70703,-1.4727 -1.1211,-2.1797 -13.727,-24.742 -30.828,-47.457 -50.812,-67.492 -19.867,-20.75 -40.145,-41.262 -60.246,-61.66 -0.64844,-0.70703 -1.4141,-1.3555 -2.1211,-2.0625 h 0.004 c -0.12109,0.53906 0.008,1.1016 0.35156,1.5312 15.68,22.754 31.242,45.625 47.156,68.203 12.02,18.535 27.32,34.715 45.156,47.746 7.6016,5.1289 14.5,10.906 21.633,16.328 z m -28.59,-114 c 0,-11.789 0.53125,-23.578 0,-35.367 -0.98828,-19.176 -4.3125,-38.16 -9.9023,-56.531 -7.3672,-24.285 -15.031,-48.277 -22.695,-72.328 l -2.0039,-7.3672 c 0.47266,12.91 1.5312,25.762 2.8281,38.492 2.1602,17.492 6.1133,34.715 11.789,51.402 3.1445,9.7852 5.8359,19.727 8.0742,29.828 1.5312,6.8398 1.9453,13.91 2.9492,20.867 0,1.7109 0.82422,3.418 1.1797,5.1875 0.8125,9.043 3.4609,17.828 7.7812,25.816 z m 27.41,240.5 c 4.2461,-9.1953 8.5469,-18.332 12.555,-27.586 h 0.004 c 0.95703,-2.1445 1.3828,-4.4922 1.2344,-6.8359 -1.2969,-11.789 -2.8867,-23.578 -4.4805,-36.371 -0.47266,1.6523 -0.82422,2.5938 -1.0039,3.5977 -3.4766,15.387 -6.7188,30.77 -10.434,46.098 l 0.004,-0.004 c -2.3398,7.0156 -1.5664,14.695 2.1211,21.105 z m -19.098,-206.32 c -1.0625,11.789 -2.0625,23.578 -3.1836,35.367 v 0.004 c -0.22656,2.1055 0.36328,4.2148 1.6523,5.8945 5.4805,7.7812 10.668,15.68 15.855,23.578 1.8867,2.8281 3.4766,5.8945 5.1875,8.9023 -4.6094,-25.121 -11.133,-49.852 -19.512,-73.98 z m 108.7,57.887 c -4.3047,8.6641 -1.8281,16.918 1.2383,24.934 v 0.004 c 3.332,-8.1602 2.8789,-17.379 -1.2383,-25.172 z m 16.977,18.273 c 4.9531,5.8945 13.027,6.6602 21.516,3.9492 v 0.004 c -6.5469,-3.6406 -14.082,-5.1055 -21.516,-4.1875 z m 5.1875,-38.906 c -4.4219,8.0742 0,14.68 3.0078,21.633 l -0.004,0.004 c 2.1484,-7.3867 1.0547,-15.336 -3.0039,-21.867 z m -32.422,63.492 c 6.0664,4.5547 13.734,6.4297 21.223,5.1836 -5.8594,-4.9805 -13.727,-6.9062 -21.223,-5.1836 z m -11.789,-16.387 v -0.004 c -4.1016,6.8203 -4.9883,15.105 -2.418,22.637 3.8125,-6.9062 4.7852,-15.023 2.7109,-22.637 z m 66.965,-48.457 c 1.9258,-7.3438 0.91016,-15.148 -2.832,-21.75 -3.9492,7.8984 -0.76562,14.617 2.832,21.75 z m -77.516,87.891 c 6.9336,3.6172 14.984,4.4609 22.516,2.3594 -6.9844,-3.4375 -14.969,-4.2734 -22.516,-2.3594 z m -22.164,30.652 c 6.1094,3.5352 13.578,3.8008 19.922,0.70703 -6.3359,-2.6445 -13.414,-2.8945 -19.922,-0.70703 z m 5.8945,-20.75 c 1.6016,-6.3633 0.82422,-13.09 -2.1836,-18.922 -1.5859,3 -2.2344,6.4062 -1.8672,9.7773 0.36719,3.375 1.7383,6.5586 3.9336,9.1445 z m 107.34,-84.352 c -6.1992,-1.9609 -12.902,-1.543 -18.805,1.1758 6.1602,2.2383 12.973,1.8125 18.805,-1.1758 z m -213.98,34.422 c 3.832,5.3633 10.078,4.125 15.328,5.4805 v 0.004 c -4.1094,-3.9062 -9.6758,-5.8984 -15.328,-5.4844 z m 19.039,2.5938 c 2.8906,-4.6484 4.1953,-10.109 3.7148,-15.559 -5.4219,4.2422 -4.1836,10.078 -4.0078,15.559 z m -93.137,-92.133 c 4.5586,2.5586 10.27,1.6836 13.855,-2.1211 -4.7227,-0.98047 -9.6406,-0.22656 -13.855,2.1211 z m -54.82,-68.438 0.64844,-0.58984 -7.6641,-11.789 -1.1797,0.82422 c 1.0039,4.8242 3.9727,9.0117 8.1953,11.555 z m 84.176,82.879 -0.35547,-1.2383 h -9.0781 c -1.6523,0 -2.0039,1.2969 -0.64844,2.2383 l 0.004,0.004 c 1.082,0.87109 2.4414,1.3281 3.832,1.2969 2.1484,-0.56641 4.2422,-1.3359 6.2461,-2.3008 z m 30.887,54.348 c 2.7695,3.5352 7.6055,3.4766 13.676,0 z m -80.461,-122.2 c -1.7227,4.9258 -1.1836,10.363 1.4727,14.855 1.1055,-4.9844 0.58984,-10.188 -1.4727,-14.855 z m 19.512,29.473 c 2.1211,-7.6641 2.0625,-9.3125 0,-11.789 -1.4883,3.6914 -1.5742,7.8047 -0.23438,11.555 z m 35.074,22.988 c -2.6992,3.3477 -3.2891,7.9258 -1.5312,11.852 0.58984,-4.1875 2.8281,-7.7227 1.2969,-12.086 z m 0.82422,36.016 c 3.5977,3.7148 7.3672,1.3555 11.141,0.76562 v -0.76562 z m -72.211,-71.676 c 3.8906,3.0664 7.7812,1.5898 11.789,0.88281 v -0.88281 z m 53.527,31.125 c 2.418,-6.543 2.418,-9.1367 0,-12.262 z m -21.633,-13.793 -10.082,-0.004 c 2.8867,2.7734 6.1289,2.5938 10.078,-0.29297 z m 248.81,-114.01 h 1.3594 c 0.64844,-1.1211 2.0039,-2.3594 1.8281,-3.3008 -0.1758,-0.9414 -1.8281,-1.7109 -2.8281,-2.5938 -0.70703,0.94141 -1.8867,1.8867 -1.8867,2.8281 -0.004,0.94531 0.87891,2.0664 1.5273,3.0664 z m -297.39,78.754 v 1.0625 c 3.6953,1.9805 7.9492,2.668 12.082,1.9453 v -0.82422 z m 118.13,102.1 h 1.0039 c 1.0625,-3.4766 3.5977,-6.7188 2.1211,-10.727 h -1.1211 z m 13.5,17.98 h 0.82422 l 3.418,-10.375 -1.0625,-0.35547 h 0.004 c -2.4492,3.1016 -3.5938,7.0352 -3.1836,10.965 z m -27.059,-33.48 c 2.7695,-6.7188 2.9492,-8.9023 0.64844,-11.438 z m -90.012,-99.035 -1.4727,0.35547 3.3594,11.789 h 0.82422 z m 255.89,-56.414 c -1.1211,-1.0625 -1.8281,-2.1797 -2.6523,-2.3008 -0.82422,-0.11719 -1.4727,1.0039 -2.2383,1.5898 v 0.004 c 0.73438,0.89453 1.5625,1.707 2.4727,2.418 0.29688,-0.0586 1.2383,-1.1211 2.418,-1.7109 z m -10.551,-81.465 -11.789,5.8945 c 4.5625,-0.29688 8.8125,-2.4219 11.789,-5.8945 z m 17.152,224 c 0.94141,-1.4141 2.0625,-2.418 1.8867,-3.125 -0.17578,-0.70703 -1.4727,-1.4141 -2.3008,-2.0625 -0.53125,0.76562 -1.4727,1.5312 -1.5312,2.3594 -0.0586,0.82422 0.94531,1.3555 1.9453,2.7109 z m 41.676,-89.48 c -0.88281,1.3555 -1.8281,2.1211 -1.8281,2.8867 0,0.76562 0.94141,1.4727 1.4727,2.2383 0.70703,-0.58984 2.0039,-1.1797 2.0039,-1.7695 0.004,-0.58594 -0.82031,-1.8828 -1.6484,-3.3555 z m -22.398,-6.957 c 0.76562,-1.6523 1.5898,-2.6523 1.3555,-3.0664 v 0.004 c -0.67188,-0.89844 -1.4883,-1.6758 -2.418,-2.3008 -0.41406,0.58984 -1.2383,1.2969 -1.1211,1.7695 0.625,1.2383 1.3555,2.4219 2.1836,3.5352 z m -85.652,138.94 c -1.1797,-0.88281 -1.8867,-1.7109 -2.7109,-1.8867 -0.8242,-0.1758 -1.5312,1.1211 -1.4727,1.5898 0.0586,0.47266 1.0039,1.5312 1.5898,2.3008 z m -99.324,-9.1953 h -7.8398 c 2.5352,2.3555 4.9492,1.4141 7.8398,0 z m 112.94,-248.35 1.2969,0.35547 c 0,-2.418 2.7109,-4.125 1.5312,-6.8398 h -1.0625 z m -5.543,253.47 1.8867,-2.4766 0.004,0.004 c -0.92188,-0.66016 -1.8867,-1.25 -2.8906,-1.7695 0,0 -1.2383,1.0625 -1.1211,1.2383 0.61328,1.1016 1.3242,2.1484 2.125,3.125 z m 87.125,-178.25 c -0.70703,1.2969 -1.5312,2.1211 -1.5312,2.8867 0,0.7656 1.1211,1.1211 1.7109,1.6523 0.64844,-0.70703 1.5898,-1.3555 1.7695,-2.1797 0.17578,-0.82812 -0.94531,-1.1836 -1.9492,-2.3594 z m -16.977,-5.1875 -1.2383,-1.2969 -2.8281,1.8281 1.6523,2.1797 z m -67.258,110.29 c -1.3555,-0.94141 -2.0625,-1.7695 -2.8281,-1.8867 -0.76562,-0.11719 -1.7695,1.2969 -1.6523,1.5312 v 0.004 c 0.35156,0.86719 1.0273,1.5664 1.8867,1.9414 0.47266,0.17969 1.3555,-0.76562 2.5938,-1.5898 z m 4.5977,-22.812 c -0.76563,1.1211 -1.7109,1.9453 -1.5312,2.418 0.17578,0.47266 1.2383,1.3555 1.8867,2.0625 0.58984,-0.76562 1.4727,-1.4727 1.5898,-2.2383 0.11719,-0.76953 -1,-1.1797 -1.9453,-2.2422 z m 73.742,33.246 h -1.2344 c -0.57422,0.91797 -1.0664,1.8867 -1.4766,2.8906 0,0 0.94141,1.1211 1.4141,1.0625 0.47269,-0.0586 2.1211,-0.58984 2.0625,-0.76562 l 0.004,-0.004 c -0.13672,-1.0859 -0.39453,-2.1523 -0.76953,-3.1836 z m -222.76,-79.047 7.1914,5.8945 c 0.58984,-1.4141 -2.6523,-4.3633 -7.1914,-5.8945 z m 79.227,-146.19 4.8945,4.7148 0.58984,-0.58984 -2.7695,-4.9531 z m 115.48,289.73 h -1.6484 c -0.44141,1.0039 -0.77734,2.0508 -1.0039,3.125 0,0 1.4727,0.64844 2.2383,0.94141 z m -33.188,17.684 h -1.6523 0.004 c -0.38672,1.0703 -0.66406,2.1758 -0.82422,3.3008 0,0 1.4141,0.53125 2.1797,0.82422 z m -157.04,-154.62 0.29297,-0.82422 c -2.3008,-0.41406 -3.3008,-4.2461 -5.8945,-3.0078 l -0.41406,1.0039 z m 235.79,-7.3672 h -1.7109 l -0.76562,3.3594 h 2.2383 z m -70.207,-1.5898 h -1.6523 v 3.3594 c 0.76563,0 2.0625,-0.47266 2.0625,-0.70703 l 0.004,-0.004 c -0.004,-0.89062 -0.10156,-1.7812 -0.29297,-2.6523 z m -20.512,95.195 1.5312,-0.88281 c 0.41406,-0.58984 1.2969,-1.3555 1.1797,-1.7109 -0.1172,-0.3554 -1.1211,-1.5312 -1.7109,-1.5312 h 0.004 c -0.83203,0.13672 -1.5156,0.73047 -1.7695,1.5312 -0.17578,0.82812 0.47266,1.7109 0.76563,2.5938 z m 10.02,-61.305 c 0.76562,-1.0625 1.6523,-1.7695 1.5312,-2.1797 h 0.004 c -0.3125,-0.80469 -0.89453,-1.4727 -1.6523,-1.8867 0,0 -1.5312,0.82422 -1.4727,1.1797 0.39844,1.0273 0.93359,2 1.5898,2.8867 z"
       id="path278"
       style="fill:#d3d3d3;fill-opacity:0.40449437" />
  </g>
  <metadata
     id="metadata524">
    <rdf:RDF>
      <cc:Work
         rdf:about="" />
    </rdf:RDF>
  </metadata>
</svg>
